<svg xmlns="http://www.w3.org/2000/svg" width="49.458" height="48.209" viewBox="0 0 49.458 48.209">
  <g id="Symbol_3_1" data-name="Symbol 3 – 1" transform="translate(-129.175 -151.611)">
    <g id="Group_1" data-name="Group 1" transform="translate(9 -102)">
      <path id="Path_31" data-name="Path 31" d="M2.371,10.006C2.36,9.973,4.008,11.62,7.714,9.29S19.434,6.05,19.751,6.078s1.689-1.755,1.689-1.755h0a13.847,13.847,0,0,1,1.32-.495,1.137,1.137,0,0,0,1.5-.387c1.294.357,1.608-.506,1.608-.506,1.265.379,1.539-.475,1.539-.475,1.195.515,1.578-.4,1.578-.4a1.089,1.089,0,0,0,1.537-.4c1.208.464,1.481-.4,1.481-.4A1.256,1.256,0,0,0,33.664.845,1.125,1.125,0,0,0,35.183.482,1.392,1.392,0,0,0,36.8.2,1.066,1.066,0,0,0,38.327,0c.669.78,1.747,0,1.747,0a1.015,1.015,0,0,0,1.492,0C42.552.96,43.3.2,43.3.2c.829.962,1.589.474,1.589.474l1.585.588L1.186,15.136C-2.058,13.458,2.381,10.039,2.371,10.006Z" transform="translate(165.049 281.915) rotate(-163)" fill="#66211f" stroke="#707070" stroke-width="0.25"/>
      <path id="Path_32" data-name="Path 32" d="M2.371,10.006C2.36,9.973,4.008,11.62,7.714,9.29S19.434,6.05,19.751,6.078s1.689-1.755,1.689-1.755h0a13.847,13.847,0,0,1,1.32-.495,1.137,1.137,0,0,0,1.5-.387c1.294.357,1.608-.506,1.608-.506,1.265.379,1.539-.475,1.539-.475,1.195.515,1.578-.4,1.578-.4a1.089,1.089,0,0,0,1.537-.4c1.208.464,1.481-.4,1.481-.4A1.256,1.256,0,0,0,33.664.845,1.125,1.125,0,0,0,35.183.482,1.392,1.392,0,0,0,36.8.2,1.066,1.066,0,0,0,38.327,0c.669.78,1.747,0,1.747,0a1.015,1.015,0,0,0,1.492,0C42.552.96,43.3.2,43.3.2c.829.962,1.589.474,1.589.474l1.585.588L1.186,15.136C-2.058,13.458,2.381,10.039,2.371,10.006Z" transform="translate(165.049 291.928) rotate(-163)" fill="#66211f" stroke="#707070" stroke-width="0.25"/>
      <path id="Path_33" data-name="Path 33" d="M2.371,10.006C2.36,9.973,4.008,11.62,7.714,9.29S19.434,6.05,19.751,6.078s1.689-1.755,1.689-1.755h0a13.847,13.847,0,0,1,1.32-.495,1.137,1.137,0,0,0,1.5-.387c1.294.357,1.608-.506,1.608-.506,1.265.379,1.539-.475,1.539-.475,1.195.515,1.578-.4,1.578-.4a1.089,1.089,0,0,0,1.537-.4c1.208.464,1.481-.4,1.481-.4A1.256,1.256,0,0,0,33.664.845,1.125,1.125,0,0,0,35.183.482,1.392,1.392,0,0,0,36.8.2,1.066,1.066,0,0,0,38.327,0c.669.78,1.747,0,1.747,0a1.015,1.015,0,0,0,1.492,0C42.552.96,43.3.2,43.3.2c.829.962,1.589.474,1.589.474l1.585.588L1.186,15.136C-2.058,13.458,2.381,10.039,2.371,10.006Z" transform="translate(165.049 301.591) rotate(-163)" fill="#66211f" stroke="#707070" stroke-width="0.25"/>
      <circle id="Ellipse_1" data-name="Ellipse 1" cx="0.77" cy="0.77" r="0.77" transform="translate(167.13 270.15) rotate(-163)" fill="#a7a7a7"/>
      <circle id="Ellipse_2" data-name="Ellipse 2" cx="0.77" cy="0.77" r="0.77" transform="translate(167.13 280.162) rotate(-163)" fill="#a7a7a7"/>
      <circle id="Ellipse_3" data-name="Ellipse 3" cx="0.77" cy="0.77" r="0.77" transform="translate(167.13 289.825) rotate(-163)" fill="#a7a7a7"/>
    </g>
  </g>
</svg>
