<svg id="Layer_2" data-name="Layer 2" xmlns="http://www.w3.org/2000/svg" xmlns:xlink="http://www.w3.org/1999/xlink" width="667" height="314" viewBox="0 0 667 314"><defs><style>.cls-1{fill:gray;}.cls-14,.cls-2,.cls-7{fill:none;}.cls-12,.cls-13,.cls-14,.cls-15,.cls-16,.cls-2,.cls-4,.cls-5,.cls-7,.cls-8,.cls-9{stroke:#000;}.cls-12,.cls-2,.cls-7{stroke-miterlimit:10;}.cls-3{opacity:0.87;}.cls-13,.cls-4{fill:#fff;}.cls-13,.cls-14,.cls-15,.cls-16,.cls-4,.cls-5,.cls-7,.cls-8,.cls-9{stroke-linecap:round;}.cls-13,.cls-14,.cls-15,.cls-16,.cls-4,.cls-5,.cls-8,.cls-9{stroke-linejoin:round;}.cls-12,.cls-15,.cls-16,.cls-4,.cls-5,.cls-7,.cls-8,.cls-9{stroke-width:0.5px;}.cls-5{fill:#090805;}.cls-6{fill:url(#linear-gradient);}.cls-8{fill:url(#linear-gradient-2);}.cls-9{fill:url(#linear-gradient-3);}.cls-10{fill:url(#linear-gradient-4);}.cls-11{fill:url(#linear-gradient-5);}.cls-12{fill:url(#linear-gradient-6);}.cls-13,.cls-14{stroke-width:0.25px;}.cls-15{fill:url(#radial-gradient);}.cls-16{fill:url(#radial-gradient-2);}</style><linearGradient id="linear-gradient" x1="331.29" y1="280.44" x2="332.14" y2="266.26" gradientUnits="userSpaceOnUse"><stop offset="0.16" stop-color="#fff"/><stop offset="0.72" stop-color="#535353"/><stop offset="1"/></linearGradient><linearGradient id="linear-gradient-2" x1="266.54" y1="117.36" x2="287.08" y2="117.36" gradientUnits="userSpaceOnUse"><stop offset="0" stop-color="#090805"/><stop offset="0.09" stop-color="#100f0c"/><stop offset="0.22" stop-color="#23221f"/><stop offset="0.37" stop-color="#42423f"/><stop offset="0.55" stop-color="#6e6e6c"/><stop offset="0.74" stop-color="#a6a6a5"/><stop offset="0.94" stop-color="#e9e9e9"/><stop offset="1" stop-color="#fff"/></linearGradient><linearGradient id="linear-gradient-3" x1="373.85" y1="114.96" x2="396.74" y2="114.96" gradientUnits="userSpaceOnUse"><stop offset="0" stop-color="#fff"/><stop offset="0.11" stop-color="#ececec"/><stop offset="0.32" stop-color="#bcbcbb"/><stop offset="0.63" stop-color="#6e6e6c"/><stop offset="1" stop-color="#090805"/></linearGradient><linearGradient id="linear-gradient-4" x1="293.47" y1="209.51" x2="299.23" y2="192.86" gradientUnits="userSpaceOnUse"><stop offset="0.29" stop-color="#fff"/><stop offset="0.57" stop-color="#797876"/><stop offset="0.81" stop-color="#090805"/></linearGradient><linearGradient id="linear-gradient-5" x1="-7080.37" y1="-68.63" x2="-7074.61" y2="-85.28" gradientTransform="matrix(-1, -0.08, -0.08, 1, -6695.33, -255.11)" xlink:href="#linear-gradient-4"/><linearGradient id="linear-gradient-6" x1="333.82" y1="291.1" x2="329.11" y2="215.43" gradientUnits="userSpaceOnUse"><stop offset="0" stop-color="#fff"/><stop offset="0.38" stop-color="#5b5a58"/><stop offset="0.58" stop-color="#090805"/></linearGradient><radialGradient id="radial-gradient" cx="289.03" cy="146.54" r="11.02" gradientTransform="translate(83.35 -109.34) rotate(22.89) scale(1 1.06)" gradientUnits="userSpaceOnUse"><stop offset="0" stop-color="#090805"/><stop offset="0.24" stop-color="#0b0a07"/><stop offset="0.37" stop-color="#13120f"/><stop offset="0.47" stop-color="#21201d"/><stop offset="0.56" stop-color="#343330"/><stop offset="0.64" stop-color="#4c4c4a"/><stop offset="0.72" stop-color="#6b6a68"/><stop offset="0.79" stop-color="#8f8f8d"/><stop offset="0.85" stop-color="#b9b9b8"/><stop offset="0.92" stop-color="#e7e7e7"/><stop offset="0.94" stop-color="#fff"/></radialGradient><radialGradient id="radial-gradient-2" cx="378.82" cy="147.52" r="9.99" gradientTransform="translate(0 -51.33) scale(1 1.35)" gradientUnits="userSpaceOnUse"><stop offset="0.34" stop-color="#090805"/><stop offset="0.5" stop-color="#464643"/><stop offset="1" stop-color="#fff"/></radialGradient></defs><title>LOGO3</title><path d="M178.69,44.11A9.13,9.13,0,0,1,177.37,49a9.29,9.29,0,0,1-3.54,3.36,12.57,12.57,0,0,1,2,2,11.68,11.68,0,0,1,1.52,2.43,15.16,15.16,0,0,1,1,2.7,10.67,10.67,0,0,1,.36,2.7V66a9.59,9.59,0,0,1-.78,3.57,9.16,9.16,0,0,1-2,2.88,10.09,10.09,0,0,1-2.93,2,8.68,8.68,0,0,1-3.59.75H163.8a.89.89,0,0,1-.69-.3,1,1,0,0,1-.26-.72,1,1,0,0,1-.31.72.92.92,0,0,1-.67.3h-3.22a1.12,1.12,0,0,1,.21-.78l.45-.51a3.15,3.15,0,0,0,.45-.75,4,4,0,0,0,.21-1.5V54.85a3.21,3.21,0,0,0-1.68-2.64,3.12,3.12,0,0,1,1.68-.48V32a4,4,0,0,0-.21-1.5,3.15,3.15,0,0,0-.45-.75l-.45-.51a1.12,1.12,0,0,1-.21-.78h3.22a1,1,0,0,1,.67.27.9.9,0,0,1,.31.69.84.84,0,0,1,1-1h5.62a9,9,0,0,1,3.59.72,9.62,9.62,0,0,1,2.93,1.95,9.07,9.07,0,0,1,2,2.91,9.7,9.7,0,0,1,.78,3.54Zm-15.42,7.68V48.55c0-.28,0-.55,0-.81a6.44,6.44,0,0,1,0-.75V45.43q-.06-1.56-.06-2.94c0-.92,0-1.78-.07-2.58,0-.44-.05-.84-.05-1.2s0-.7-.06-1,0-.63,0-.93,0-.55,0-.75,0-.46,0-.66a3,3,0,0,1,0-.48v-.36a.14.14,0,0,0-.06.12v.24q0,.18,0,.48a4.57,4.57,0,0,0,0,.66c0,.2,0,.45,0,.75s0,.61,0,.93a6.66,6.66,0,0,0-.06,1c0,.36,0,.76-.07,1.2,0,.8,0,1.66,0,2.58s0,1.9-.06,2.94v2.31a7.73,7.73,0,0,1-.06.81V55a2.58,2.58,0,0,0,0,.42,2.58,2.58,0,0,1,0,.42v2.28c0,.52,0,1,0,1.53s0,1,0,1.41,0,.88,0,1.32,0,.88,0,1.32a3,3,0,0,1,.07.57v.57a4.39,4.39,0,0,0,0,.54,3.87,3.87,0,0,1,0,.48c0,.32,0,.63,0,.93s0,.57,0,.81a4,4,0,0,0,0,.63,4.21,4.21,0,0,1,0,.45V69a.14.14,0,0,0,.06.12v-.42a2.59,2.59,0,0,1,0-.45,5.78,5.78,0,0,0,0-.63q0-.36,0-.81t0-.93a2.63,2.63,0,0,0,.06-.48v-.54a5.17,5.17,0,0,1,0-.57,5.24,5.24,0,0,0,0-.57c0-.44,0-.88,0-1.32s0-.88,0-1.32,0-.91,0-1.41,0-1,0-1.53v-1.5a3,3,0,0,1,.06-.78v-4Zm9.84-14c0-.52,0-1.15-.07-1.89a7.25,7.25,0,0,0-.41-2.13,4.77,4.77,0,0,0-1.1-1.77,2.93,2.93,0,0,0-2.17-.75h-2.15a1.62,1.62,0,0,0-1.6,1.62V49a1.62,1.62,0,0,0,1.6,1.62h2.15a3,3,0,0,0,2.17-.72,4.47,4.47,0,0,0,1.1-1.77A7.58,7.58,0,0,0,173,46c0-.74.07-1.37.07-1.89Zm0,24.3c0-.52,0-1.26-.07-2.22a13.61,13.61,0,0,0-.41-2.88,7.45,7.45,0,0,0-1.1-2.49,2.5,2.5,0,0,0-2.17-1.05h-2.15a1.62,1.62,0,0,0-1.6,1.62v15.6a1.45,1.45,0,0,0,.47,1.11,1.87,1.87,0,0,0,1.13.51h2.15a2.93,2.93,0,0,0,2.17-.75,4.77,4.77,0,0,0,1.1-1.77,7.32,7.32,0,0,0,.41-2.16c0-.76.07-1.4.07-1.92Zm2.7-16.38a2.62,2.62,0,0,0,.12-.48,1.2,1.2,0,0,0,.11-.48.59.59,0,0,0,.05-.27.76.76,0,0,1,0-.27,1.32,1.32,0,0,1,0-.27,3.25,3.25,0,0,0,0-.33,2.7,2.7,0,0,0,0-.6,4.07,4.07,0,0,0,.06-.6,2.45,2.45,0,0,1,.06-.6V39.22q0-.63-.06-1.23a1.05,1.05,0,0,1-.06-.33.6.6,0,0,0-.06-.27,2.11,2.11,0,0,0-.06-.6,4.16,4.16,0,0,1-.08-.54,4,4,0,0,0-.09-.48,2.32,2.32,0,0,1-.11-.48.86.86,0,0,1-.11-.36l-.17-.36a.44.44,0,0,0-.11-.3c0-.12-.1-.26-.17-.42l-.12-.12v.06s0,.06,0,.06,0,0,0,.06a.24.24,0,0,1,.06.18.53.53,0,0,0,.06.24v.3a.84.84,0,0,1,.06.36.47.47,0,0,0,0,.21.66.66,0,0,1,0,.21v.42a2.63,2.63,0,0,1,.06.48v1.14a.89.89,0,0,0,0,.27c0,.1,0,.19,0,.27v4.44a2.11,2.11,0,0,0-.06.6v1.14a4.39,4.39,0,0,1,0,.54,3.87,3.87,0,0,0,0,.48,3.19,3.19,0,0,1,0,.45,1.8,1.8,0,0,0,0,.39.62.62,0,0,1-.06.36v.36s-.06,0-.06.12V47a.19.19,0,0,1,0,.09s0,.05,0,.09a.23.23,0,0,1-.06.12l.12-.12s0-.07,0-.09a.1.1,0,0,0,0-.09s.06,0,.06-.12.06,0,.06-.12.06,0,.06-.12a.3.3,0,0,0,.06-.18.41.41,0,0,0,.12-.3C175.76,45.91,175.81,45.77,175.81,45.73ZM175.57,63v1.8a2.11,2.11,0,0,0-.06.6v1.08a4.39,4.39,0,0,1,0,.54,3.87,3.87,0,0,0,0,.48,2.58,2.58,0,0,1,0,.42,1.46,1.46,0,0,0,0,.36v.18a.21.21,0,0,0-.06.18v.3a.17.17,0,0,0-.06.12v.12a.19.19,0,0,1,0,.09s0,0,0,.09a.23.23,0,0,1-.06.12h.06l.06-.12.06-.12a.17.17,0,0,0,.06-.12.23.23,0,0,0,.06-.12.21.21,0,0,0,.05-.12.24.24,0,0,0,.06-.18.44.44,0,0,0,.11-.3,4,4,0,0,0,.22-.84A2.32,2.32,0,0,0,176,67a.6.6,0,0,0,.06-.27.76.76,0,0,1,.05-.27,1.39,1.39,0,0,1,0-.27,1.39,1.39,0,0,0,0-.27,1.82,1.82,0,0,0,.06-.54,4.07,4.07,0,0,0,.06-.6,2.45,2.45,0,0,1,.06-.6V61.69c0-.2,0-.4,0-.6l-.09-.6a1.82,1.82,0,0,0-.06-.54,1.39,1.39,0,0,0,0-.27,1.39,1.39,0,0,1,0-.27.59.59,0,0,1-.05-.27.6.6,0,0,0-.06-.27,1,1,0,0,0,0-.24,1,1,0,0,1,0-.24,3.2,3.2,0,0,1-.11-.42c0-.12-.1-.26-.17-.42a.44.44,0,0,0-.11-.3.41.41,0,0,0-.12-.3c-.07-.16-.13-.28-.17-.36a.16.16,0,0,1,0-.12h-.06l.06.12s0,.07,0,.09a.19.19,0,0,1,0,.09.53.53,0,0,0,.06.24v.3a.67.67,0,0,1,.06.3,1,1,0,0,0,.06.42v.42a2.63,2.63,0,0,1,.06.48V60a.89.89,0,0,0,0,.27c0,.1,0,.19,0,.27V63Z"/><path d="M211.08,71.45a4.52,4.52,0,0,0,.21,1.6,2.55,2.55,0,0,0,.46.78l.45.51a1.25,1.25,0,0,1,.21.79H196.2a.84.84,0,0,1-.95-1,.9.9,0,0,1-.31.69,1,1,0,0,1-.67.27H191a1.17,1.17,0,0,1,.21-.78l.46-.51a3.52,3.52,0,0,0,.45-.75,4.2,4.2,0,0,0,.21-1.5V54.91a3.27,3.27,0,0,0-1.68-2.7,3.7,3.7,0,0,1,1.68-.42V32a4.2,4.2,0,0,0-.21-1.5,3.52,3.52,0,0,0-.45-.75l-.46-.51a1.17,1.17,0,0,1-.21-.78h3.23a.94.94,0,0,1,.67.3,1,1,0,0,1,.31.72,1,1,0,0,1,.27-.72.87.87,0,0,1,.69-.3h3.12a1.23,1.23,0,0,1-.21.78,6.43,6.43,0,0,0-.45.54,3.49,3.49,0,0,0-.46.78,4.2,4.2,0,0,0-.21,1.56V51.79a3.49,3.49,0,0,1,1.62.42,3.29,3.29,0,0,0-1.62,2.7V70.69a1.64,1.64,0,0,0,1.61,1.62h4.29a1.52,1.52,0,0,0,1.13-.49,1.55,1.55,0,0,0,.47-1.15V68.8a5.68,5.68,0,0,1,.73-2.65,5.55,5.55,0,0,1,1.65-1.88,5.22,5.22,0,0,1,3.2-.84Zm-15.41-19.7V48.52q0-.42,0-.78a6.44,6.44,0,0,1,0-.78V45.4c0-1-.07-2-.07-2.91s0-1.81,0-2.61q-.06-.6-.06-1.17c0-.38,0-.73-.06-1.05a8.84,8.84,0,0,0,0-.91c0-.27,0-.53,0-.77s0-.45,0-.63a2.59,2.59,0,0,1,0-.45v-.42a.17.17,0,0,0-.06.12v.3c0,.12,0,.27,0,.45a3.92,3.92,0,0,0,0,.63c0,.24,0,.5,0,.77a8.92,8.92,0,0,0,0,.91,8.4,8.4,0,0,0-.07,1.05c0,.38,0,.77-.05,1.17q-.06,1.2-.06,2.61c0,.94,0,1.91-.06,2.91v2.34a7.59,7.59,0,0,1-.06.78V55a2.68,2.68,0,0,0,0,.39,1.84,1.84,0,0,1,0,.39v2.34c0,.52,0,1,0,1.5s0,.94,0,1.38,0,.93,0,1.35,0,.85,0,1.29a3.88,3.88,0,0,1,.05.57v.57a3,3,0,0,0,0,.54c0,.16,0,.34,0,.54a8.34,8.34,0,0,0,0,.89c0,.29,0,.54,0,.79a3.92,3.92,0,0,0,0,.63c0,.18,0,.33,0,.45v.3a.17.17,0,0,0,.06.12v-.42a2.59,2.59,0,0,1,0-.45c0-.18,0-.39,0-.63s0-.5,0-.79a8.2,8.2,0,0,0,0-.89,3.87,3.87,0,0,0,.06-.54v-.54a3.51,3.51,0,0,1,0-.57c0-.18,0-.37,0-.57q0-.66,0-1.29c0-.42,0-.87,0-1.35s0-.9,0-1.38,0-1,0-1.5V56.17a1,1,0,0,1,.06-.39v-4Z"/><path d="M250.33,72.07a3.28,3.28,0,0,0,.45,1.17,4.76,4.76,0,0,0,.53.66c.19.18.34.35.48.51a1.73,1.73,0,0,1,.33.72H249a1.5,1.5,0,0,1-.75-.33,1,1,0,0,1-.38-.69.81.81,0,0,1-.79,1h-3.17a1.36,1.36,0,0,1,.05-.72c.08-.24.17-.5.28-.78s.18-.59.26-.93a4,4,0,0,0,.06-1.23l-1.56-9a2.07,2.07,0,0,0-.69-1,1.79,1.79,0,0,0-1.17-.42h-4.38a1.67,1.67,0,0,0-1.1.42,2.34,2.34,0,0,0-.75,1l-1.5,9a5.11,5.11,0,0,0-.1,1.56,2.62,2.62,0,0,0,.27.78c.13.2.23.38.34.54a1.36,1.36,0,0,1,.08.78h-3.17a.74.74,0,0,1-.61-.3.9.9,0,0,1-.18-.72,1.21,1.21,0,0,1-.38.72,1.12,1.12,0,0,1-.75.3h-3.12a1.14,1.14,0,0,1,.29-.72l.51-.48a2.87,2.87,0,0,0,.54-.63,4.36,4.36,0,0,0,.51-1.23L230.83,54a2.27,2.27,0,0,0-1.15-1.74,3.43,3.43,0,0,1,1.5-.42l3.49-19.68a4.38,4.38,0,0,0,.05-1.59,2.44,2.44,0,0,0-.3-.78q-.18-.27-.36-.51a1,1,0,0,1-.06-.78h4.14a.88.88,0,0,1,.85,1,1,1,0,0,1,.26-.66.82.82,0,0,1,.63-.3H244a1.6,1.6,0,0,1-.05.72c-.09.24-.19.5-.31.78a6.78,6.78,0,0,0-.3.93,3.16,3.16,0,0,0,0,1.23l3.42,19.68a3.55,3.55,0,0,1,1.57.42A2.24,2.24,0,0,0,247.14,54ZM237,36q0-.36.09-.63c0-.18,0-.35,0-.51a.24.24,0,0,1,0-.15.12.12,0,0,0,0-.09v-.12a.17.17,0,0,0-.06.12.2.2,0,0,1,0,.09s0,.07,0,.15a1.73,1.73,0,0,0-.08.45,4.16,4.16,0,0,1-.16.63q-.18.66-.51,2.31t-.69,3.54c-.23,1.26-.49,2.51-.75,3.75s-.47,2.22-.63,2.94q-.18.78-.33,1.56c-.1.52-.18,1.06-.27,1.62q-.06.36-.33,1.83c-.17,1-.36,2-.54,3.09s-.33,2.07-.47,3S232,60.93,232,61c-.12.68-.23,1.32-.31,1.92s-.18,1.22-.3,1.86a3,3,0,0,1,0,.54q0,.24-.09.54a4.46,4.46,0,0,0-.14.93c0,.3-.06.57-.1.81s-.07.45-.09.63a3.87,3.87,0,0,0,0,.45.56.56,0,0,0-.07.3v.12A.19.19,0,0,0,231,69a.67.67,0,0,1,.05-.3,2.23,2.23,0,0,0,.09-.45,2.64,2.64,0,0,1,.16-.63c0-.12.12-.49.24-1.11s.25-1.3.42-2,.3-1.44.44-2.1a6.91,6.91,0,0,1,.33-1.23q.06-.3.33-1.74c.19-1,.37-2,.57-3.06s.39-2.07.58-3,.26-1.39.26-1.47q.12-.84.3-1.62c.12-.52.22-1.06.31-1.62Zm3.54,22.2a1.31,1.31,0,0,0,1-.48,1.37,1.37,0,0,0,.26-1.14l-.24-1.26a.53.53,0,0,0-.06-.24,3.19,3.19,0,0,0-.75-1.65,5.53,5.53,0,0,0-1.46-1.23,3,3,0,0,1,1.62-.48l.12,0a.2.2,0,0,0,.11,0L239,39.43l-2.16,12.36a.16.16,0,0,0,.09,0s0,0,.08,0a2.68,2.68,0,0,1,1.62.48,3.91,3.91,0,0,0-2.21,2.88.34.34,0,0,1-.07.24l-.24,1.26a1.32,1.32,0,0,0,.28,1.14,1.25,1.25,0,0,0,1,.48Zm6.42,10.44a.44.44,0,0,0,0,.18.18.18,0,0,1,0,.12v0a.18.18,0,0,0,0-.12.44.44,0,0,1,0-.18c0-.12,0-.28,0-.48s-.06-.42-.09-.66a3.66,3.66,0,0,1-.09-.75,6.47,6.47,0,0,0-.16-.93,4.39,4.39,0,0,0,0-.54q0-.24-.09-.54t-.09-.57c0-.18-.05-.37-.08-.57a12.18,12.18,0,0,1-.19-1.29q-.06-.63-.18-1.35l-.24-1.44c-.08-.48-.16-1-.23-1.5a11.06,11.06,0,0,0-.19-1.23c-.12-.66-.23-1.36-.35-2.1s-.25-1.41-.37-2a9.23,9.23,0,0,1-.17-1c-.09-.56-.18-1.1-.28-1.62s-.21-1-.33-1.56-.17-1-.26-1.56-.21-1-.34-1.56c-.2-1-.38-2-.57-2.94s-.35-1.78-.51-2.58-.31-1.34-.45-2-.29-1.28-.45-1.92c0-.24-.08-.45-.11-.63l-.12-.45a.44.44,0,0,1-.07-.24.21.21,0,0,0-.05-.12v.12s0,.07,0,.09a.24.24,0,0,1,0,.15,2.09,2.09,0,0,1,.07.51A3.78,3.78,0,0,0,241,36c.08.6.17,1.23.28,1.89s.18,1.33.26,2c.25,1.68.54,3.54.91,5.58.07.52.15,1,.23,1.56l.24,1.56c.08.56.17,1.1.28,1.62s.21,1.06.33,1.62q0,.42.21,1.29c.09.58.21,1.19.33,1.83s.23,1.26.35,1.86.2,1,.24,1.32c.13.52.23,1,.34,1.53s.18,1,.26,1.41.17.88.28,1.32.18.86.26,1.26l.12.6.12.6q.06.3.12.51c0,.14.09.31.13.51s.14.62.21.9.1.54.14.78.14.45.19.63A2.07,2.07,0,0,0,246.91,68.65Z"/><path d="M282.73,62.17a1.12,1.12,0,0,1-.22.78l-.44.51a2.54,2.54,0,0,0-.45.78,4,4,0,0,0-.21,1.53,8.94,8.94,0,0,1-.75,3.63,9.79,9.79,0,0,1-2,3,9.66,9.66,0,0,1-3,2,9.23,9.23,0,0,1-7.22,0,9.33,9.33,0,0,1-4.95-4.83,8.89,8.89,0,0,1-.81-3.57V54.91a3.26,3.26,0,0,0-1.69-2.7,3.74,3.74,0,0,1,1.69-.42V37.63a9.11,9.11,0,0,1,.81-3.6,9.49,9.49,0,0,1,2-2.91,9.6,9.6,0,0,1,2.95-1.95,9.29,9.29,0,0,1,7.22,0,9.41,9.41,0,0,1,5,5,9,9,0,0,1,.75,3.67,3.79,3.79,0,0,0,.21,1.5,3.07,3.07,0,0,0,.45.77c.15.2.3.38.44.54a1.12,1.12,0,0,1,.22.78h-3.12a.94.94,0,0,1-1-1,1,1,0,0,1-1,1H274.5a1.17,1.17,0,0,1,.21-.78l.46-.54a4,4,0,0,0,.45-.77,4.4,4.4,0,0,0,.21-1.55v-.06c0-.52,0-1.14-.07-1.88a7.18,7.18,0,0,0-.41-2.12A4.38,4.38,0,0,0,274.22,32a3,3,0,0,0-2.14-.71,2.94,2.94,0,0,0-2.18.75,4.77,4.77,0,0,0-1.1,1.77,7.67,7.67,0,0,0-.42,2.16c0,.76-.05,1.4-.05,1.92V51.79a3.49,3.49,0,0,1,1.62.42,3.24,3.24,0,0,0-1.62,2.7V65.77c0,.52,0,1.15.05,1.89a8,8,0,0,0,.42,2.16,4.47,4.47,0,0,0,1.1,1.77,3.6,3.6,0,0,0,4.32,0,4.34,4.34,0,0,0,1.13-1.74,7.25,7.25,0,0,0,.41-2.13c0-.74.07-1.37.07-1.89a4.7,4.7,0,0,0-.21-1.59,3.35,3.35,0,0,0-.45-.78l-.46-.51a1.17,1.17,0,0,1-.21-.78h3.19a1,1,0,0,0,1.92,0ZM266,51.73V49c0-.24,0-.48,0-.72a5.29,5.29,0,0,1,0-.66V46.21c0-.88-.05-1.72-.05-2.52s0-1.56-.07-2.28a8.86,8.86,0,0,1-.05-1c0-.3,0-.61-.06-.93s0-.55,0-.81a6,6,0,0,1,0-.69,3,3,0,0,0,0-.54,3.25,3.25,0,0,1,0-.42v-.3c-.05,0-.07,0-.07.06V37a3.25,3.25,0,0,1,0,.42,3,3,0,0,0,0,.54c0,.2,0,.43,0,.69a7.09,7.09,0,0,0,0,.81,7.44,7.44,0,0,0-.05.93,9.19,9.19,0,0,1-.07,1c0,.72-.05,1.48-.05,2.28s0,1.64-.06,2.52v1.38c0,.2,0,.42,0,.66a5.79,5.79,0,0,0,0,.72v5.58a1.47,1.47,0,0,0,0,.36c0,.12,0,.22,0,.3v2c0,.44,0,.87,0,1.29s0,.83,0,1.23,0,.85,0,1.23,0,.73,0,1a9.37,9.37,0,0,1,.07,1,6.43,6.43,0,0,0,.05.9,7,7,0,0,0,0,.84c0,.24,0,.46,0,.66a3,3,0,0,0,0,.54,3.25,3.25,0,0,1,0,.42v.3s0,.06.07.06v-.36a3.25,3.25,0,0,1,0-.42,3,3,0,0,0,0-.54,5.29,5.29,0,0,1,0-.66c0-.24,0-.52,0-.84a8.32,8.32,0,0,0,.06-.9,9.15,9.15,0,0,1,.05-1q0-.48,0-1c0-.38,0-.79,0-1.23s0-.81,0-1.23,0-.85,0-1.29V55.93a2.62,2.62,0,0,1,.07-.72V51.73Z"/><path d="M314.64,71.77a6.13,6.13,0,0,0,.69,1.41,3.62,3.62,0,0,0,.67.72c.21.18.42.35.59.51a1.68,1.68,0,0,1,.45.72h-3.17a1.23,1.23,0,0,1-1.27-1c.2.64,0,1-.65,1h-3.12a1.12,1.12,0,0,1-.07-.78c.08-.16.17-.33.28-.51a2.4,2.4,0,0,0,.21-.78,4.57,4.57,0,0,0-.3-1.59l-5.53-17.28L302,56.83V71.47a4.41,4.41,0,0,0,.22,1.59,2.76,2.76,0,0,0,.48.78l.47.51a1.17,1.17,0,0,1,.21.78h-3.16a.85.85,0,0,1-1-1,.92.92,0,0,1-.3.69,1,1,0,0,1-.66.27h-3.19a1.17,1.17,0,0,1,.21-.78l.45-.51a2.85,2.85,0,0,0,.45-.75,4,4,0,0,0,.21-1.5V54.91a3.26,3.26,0,0,0-1.67-2.7,3.66,3.66,0,0,1,1.67-.42V32a4,4,0,0,0-.21-1.5,2.85,2.85,0,0,0-.45-.75l-.45-.51a1.17,1.17,0,0,1-.21-.78h3.19a1,1,0,0,1,.66.3,1,1,0,0,1,.3.72,1,1,0,0,1,.27-.72.89.89,0,0,1,.7-.3h3.16a1.17,1.17,0,0,1-.21.78c-.15.16-.31.34-.47.54a3.49,3.49,0,0,0-.48.78,4.16,4.16,0,0,0-.22,1.56l0,18.9,10.41-20.7a3.4,3.4,0,0,0,.26-.81,1.23,1.23,0,0,0,0-.39,2,2,0,0,1-.05-.24.65.65,0,0,1,.09-.42h1.67c.32,0,.4.16.25.48a.75.75,0,0,1,.71-.48H317a1,1,0,0,1-.31.42l-.35.24a2.05,2.05,0,0,0-.42.39,2.92,2.92,0,0,0-.49.81l-8.58,17ZM299.64,55c0-.56.07-1.1.07-1.62V50.17c0-.52,0-1.06-.07-1.62V45.43q-.06-1.5-.09-2.91t-.09-2.61V38.74c0-.38,0-.73,0-1.05s0-.62,0-.9a7.28,7.28,0,0,1,0-.78,3.78,3.78,0,0,1,0-.63v-.45a.56.56,0,0,1-.07-.3v.3c0,.12,0,.27,0,.45a4,4,0,0,0,0,.63,3.84,3.84,0,0,0-.07.78v.9a8.5,8.5,0,0,0-.06,1.05c0,.38,0,.77-.05,1.17-.05.8-.07,1.67-.1,2.61s0,1.91,0,2.91v.78a5.63,5.63,0,0,1-.07.78v9.6a5.63,5.63,0,0,1,.07.78v2.28c0,.48,0,.94.05,1.38s0,.93,0,1.35,0,.85,0,1.29a5.24,5.24,0,0,0,0,.57,5.17,5.17,0,0,1,0,.57v1.08a7.28,7.28,0,0,1,.06.9,3.84,3.84,0,0,0,.07.78,4,4,0,0,0,0,.63c0,.18,0,.33,0,.45V69a.79.79,0,0,1,.07-.3V68.2a3.78,3.78,0,0,1,0-.63,7.28,7.28,0,0,1,0-.78c0-.28,0-.58,0-.9a4.52,4.52,0,0,1,0-.54,3,3,0,0,0,0-.54v-.57a2.34,2.34,0,0,1,.07-.57V62.38c0-.42,0-.87.05-1.35s0-.9,0-1.38,0-1,0-1.5V55Zm11.23,13.86a.16.16,0,0,0,.05.12s0,.06.07.06-.07,0-.07-.06v-.12a5,5,0,0,0-.12-.54,5.27,5.27,0,0,0-.12-.78,1.25,1.25,0,0,1-.14-.48q0-.24-.09-.54a4.84,4.84,0,0,1-.31-1.2,3.18,3.18,0,0,1-.18-.66,4,4,0,0,0-.17-.66,3.07,3.07,0,0,1-.25-.72.92.92,0,0,0-.12-.36.31.31,0,0,0,0-.18.44.44,0,0,1,0-.18c-.09-.24-.16-.48-.25-.72l-.24-.72q-.12-.42-.24-.78c-.08-.24-.16-.48-.23-.72a2.53,2.53,0,0,1-.12-.36l-.12-.3c-.05-.12-.09-.24-.13-.36l-.12-.36L307.45,57q-.26-.63-.42-1.17c-.17-.36-.31-.69-.43-1s-.22-.55-.3-.75a.43.43,0,0,1-.14-.24,2.44,2.44,0,0,0-.1-.24.17.17,0,0,1-.06-.12v.18a.53.53,0,0,1,.06.24.53.53,0,0,0,.06.24q.06.36.18.81t.24,1.05l.27,1.2a9.48,9.48,0,0,0,.4,1.32l.17.72a3.72,3.72,0,0,0,.24.72,4.89,4.89,0,0,1,.21.72q.09.36.21.72c.08.24.16.48.25.72s.15.48.24.72a.62.62,0,0,1,.05.18.46.46,0,0,0,.06.18.53.53,0,0,1,.07.18.41.41,0,0,0,.05.18,3.72,3.72,0,0,1,.24.72l.25.63a5.87,5.87,0,0,0,.24.63c.07.2.15.4.23.6l.24.6q.12.3.18.51a2.08,2.08,0,0,0,.19.45,3,3,0,0,0,.35.72A1.92,1.92,0,0,0,310.87,68.89Z"/><path d="M367.5,28.45a1.73,1.73,0,0,1-.33.72q-.21.24-.48.51a4.78,4.78,0,0,0-.54.66,4.36,4.36,0,0,0-.51,1.23l-3.54,20.1a2.68,2.68,0,0,1,1.62.48,4.28,4.28,0,0,0-1.44,1.17A3.82,3.82,0,0,0,361.5,55a.27.27,0,0,1,0,.12.27.27,0,0,0,0,.12l-.54,3.12-2.34,13a5.19,5.19,0,0,0-.09,1.59,1.77,1.77,0,0,0,.3.78,6.13,6.13,0,0,1,.36.51,1.26,1.26,0,0,1,.09.78h-4.14a.87.87,0,0,1-.84-1,1,1,0,0,1-.27.66.89.89,0,0,1-.69.3h-4a1,1,0,0,1,.06-.78l.36-.51A2.43,2.43,0,0,0,350,73a4,4,0,0,0-.06-1.5l-2-12.3L346,71.59a4,4,0,0,0-.06,1.5,2.43,2.43,0,0,0,.3.75l.33.51a1.26,1.26,0,0,1,.09.78H342.6a.9.9,0,0,1-.9-1,.86.86,0,0,1-.27.63,1.14,1.14,0,0,1-.63.33h-4.08a2.13,2.13,0,0,1,.33-1.47,3.7,3.7,0,0,0,.33-2.19l-2.94-16.14v-.24a3.82,3.82,0,0,0-.78-1.71,4.28,4.28,0,0,0-1.44-1.17,2.58,2.58,0,0,1,1.56-.48h.06l-3.6-20.16a3.14,3.14,0,0,0-.48-1.23,6.8,6.8,0,0,0-.57-.66l-.51-.51a1.2,1.2,0,0,1-.3-.72h3.12a1.08,1.08,0,0,1,.75.3,1.17,1.17,0,0,1,.39.72.9.9,0,0,1,.18-.72.74.74,0,0,1,.6-.3h3.18a1.68,1.68,0,0,1-.06.78,7.32,7.32,0,0,1-.3.75,4.74,4.74,0,0,0-.3.9,3.16,3.16,0,0,0,0,1.23l3.54,19.62a3.36,3.36,0,0,1,1.68.48,2.52,2.52,0,0,0-1.2,2.34l1.74,9.72,1.68-9.78a2.46,2.46,0,0,0-1.2-2.28,3.36,3.36,0,0,1,1.68-.48l1.32-7.5q-.12-1-.3-2t-.3-1.71q-.18-.87-.3-1.53a7.72,7.72,0,0,1-.09-2.76,4.63,4.63,0,0,1,.75-1.89,3.07,3.07,0,0,1,1.35-1.08A4.49,4.49,0,0,1,348,33a4.57,4.57,0,0,1,1.68.33,3.54,3.54,0,0,1,1.44,1,4.23,4.23,0,0,1,.84,1.89A7.36,7.36,0,0,1,351.9,39q-.12.66-.3,1.53l-.36,1.71q-.24,1-.48,2l1.32,7.44q.42.06.84.15a2.24,2.24,0,0,1,.78.33,2.77,2.77,0,0,0-1.2,2.22l1.74,9.84L356,54.49a2.61,2.61,0,0,0-1.2-2.34,3.36,3.36,0,0,1,1.68-.48l3.48-19.56a5,5,0,0,0,.09-1.56,2,2,0,0,0-.3-.78l-.39-.54a1,1,0,0,1-.06-.78h3.18a.8.8,0,0,1,.66.3.76.76,0,0,1,.12.72,1.64,1.64,0,0,1,.42-.72,1,1,0,0,1,.72-.3ZM339.78,68.71a.42.42,0,0,0,0,.18.27.27,0,0,1,0,.12.05.05,0,0,0,.06.06.05.05,0,0,1-.06-.06v-.3a2.1,2.1,0,0,1-.06-.51,3.9,3.9,0,0,0-.06-.63q-.06-.36-.12-.78t-.12-.9a10.13,10.13,0,0,1-.18-1.08q-.06-.54-.18-1.2L338.73,61l-.45-2.94a4.09,4.09,0,0,1-.15-.78,4.09,4.09,0,0,0-.15-.78q-.06-.42-.12-.78t-.12-.78q-.12-.84-.3-1.62t-.3-1.62q-.12-.84-.3-1.62t-.3-1.62a2.23,2.23,0,0,1-.09-.39,2.23,2.23,0,0,0-.09-.39,3.37,3.37,0,0,0-.12-.78,7.12,7.12,0,0,1-.18-.78q-.06-.36-.12-.78-.18-.72-.33-1.47t-.27-1.41q-.12-.66-.27-1.32t-.27-1.26a2.2,2.2,0,0,1-.15-.6,2.2,2.2,0,0,0-.15-.6q-.06-.3-.09-.54a1.48,1.48,0,0,0-.15-.48q-.18-.9-.36-1.68a3.13,3.13,0,0,1-.15-.63,2.23,2.23,0,0,0-.09-.45.67.67,0,0,1-.06-.3.17.17,0,0,0-.06-.12v.12a.67.67,0,0,0,.06.3,4.21,4.21,0,0,0,0,.45q0,.27.09.63t.09.81a5.29,5.29,0,0,0,.15.93q.06.3.09.54a4.39,4.39,0,0,1,0,.54q.06.3.09.57t.09.57q.12.66.21,1.29t.21,1.35q.12.66.24,1.41l.24,1.53q.06.36.12.75t.12.81q.12.48.18.78a2.19,2.19,0,0,0,0,.36q0,.18.09.42.12.84.27,1.62t.33,1.62q.12.84.27,1.62t.33,1.56l.12.81a6.61,6.61,0,0,0,.18.81,3.12,3.12,0,0,1,.15.75,3.12,3.12,0,0,0,.15.75l.57,2.94q.27,1.38.57,2.58l.24,1.17q.12.57.24,1t.21.9a7.32,7.32,0,0,0,.21.78,2.2,2.2,0,0,1,.15.6A2.29,2.29,0,0,0,339.78,68.71Zm6.3-14.58v.18a1.49,1.49,0,0,0-.18.42l-.18.72a8.3,8.3,0,0,0-.24,1,2.19,2.19,0,0,0-.15.57,2.19,2.19,0,0,1-.15.57l-.12.6q-.06.3-.12.66-.06.18-.18.66a.67.67,0,0,1-.06.3.84.84,0,0,1-.06.36q-.06.36-.09.69a3.06,3.06,0,0,1-.15.69q-.06.36-.09.72a3.08,3.08,0,0,1-.15.72,1.89,1.89,0,0,1,0,.3,2.19,2.19,0,0,0,0,.36A1.13,1.13,0,0,0,344,64a.67.67,0,0,1-.06.3,9.82,9.82,0,0,0-.15,1.29q0,.63-.09,1.11t-.09,1q0,.45,0,.75a2,2,0,0,0-.06.48V69l.06-.12a1.49,1.49,0,0,0,.18-.42,4.35,4.35,0,0,0,.21-.75q.09-.45.21-.93.3-1.2.54-2.4a.67.67,0,0,0,.06-.3,1.13,1.13,0,0,1,.06-.36,2.1,2.1,0,0,0,.12-.66,3.08,3.08,0,0,0,.15-.72,2.28,2.28,0,0,1,.15-.66l.18-1.44a.67.67,0,0,0,.06-.3.42.42,0,0,1,0-.18.42.42,0,0,0,0-.18,2.19,2.19,0,0,1,0-.36,1.89,1.89,0,0,0,0-.3,9.51,9.51,0,0,1,.18-1.26,3.05,3.05,0,0,0,.06-.6,3.05,3.05,0,0,1,.06-.6A2,2,0,0,0,346,56v-.48a3.73,3.73,0,0,0,.06-.72v-.66Zm6.24,14.58a.24.24,0,0,0,0,.15.12.12,0,0,1,0,.09v-.24a1.33,1.33,0,0,1-.06-.42,2.78,2.78,0,0,0-.06-.54,5.86,5.86,0,0,1-.09-.66q0-.36-.09-.78t-.12-.9l-.12-1q-.3-2-.72-4.68a6,6,0,0,1-.09-.63,2.23,2.23,0,0,0-.15-.63q-.06-.36-.09-.69a6,6,0,0,0-.09-.63l-.24-1.35q-.12-.69-.24-1.35-.3-1.44-.54-2.7a3.28,3.28,0,0,0-.12-.72.67.67,0,0,1-.06-.3.67.67,0,0,0-.06-.3q-.06-.36-.12-.69t-.12-.63q-.12-.66-.27-1.26t-.27-1.2q-.18-1-.48-2.16-.12-.48-.21-.93t-.21-.93q-.12-.42-.18-.75t-.12-.63a2.22,2.22,0,0,1-.15-.54,1.16,1.16,0,0,0-.09-.36.53.53,0,0,1-.06-.24v.24a.84.84,0,0,1,.06.36,2.78,2.78,0,0,0,.06.54q.06.66.18,1.44l.12.93q.06.45.12,1,.18,1,.36,2.16.12.6.18,1.2t.18,1.26a5.86,5.86,0,0,1,.09.66,2.28,2.28,0,0,0,.15.66,1.69,1.69,0,0,0,0,.33,1.69,1.69,0,0,1,0,.33,2.77,2.77,0,0,1,.09.33,1.69,1.69,0,0,1,0,.33q.12.66.24,1.35l.24,1.35.54,2.7q.12.84.24,1.32.06.3.12.66t.12.66q.3,1.26.51,2.43t.45,2.19q.12.48.21.93t.21.87q.24.84.36,1.44a2.3,2.3,0,0,1,.15.51A2.23,2.23,0,0,0,352.32,68.71Zm10-33.78a.42.42,0,0,1,0-.18.27.27,0,0,0,0-.12v0a.27.27,0,0,1,0,.12.42.42,0,0,0,0,.18,4.64,4.64,0,0,0-.12.45A6.48,6.48,0,0,1,362,36q-.18.78-.36,1.68a1.48,1.48,0,0,0-.15.48q0,.24-.09.54a2.19,2.19,0,0,0-.15.57q0,.27-.09.57-.12.66-.27,1.29t-.33,1.35q-.12.66-.27,1.38t-.33,1.5q-.06.42-.12.78a7.12,7.12,0,0,1-.18.78,2.19,2.19,0,0,1,0,.36q0,.18-.09.42a2.23,2.23,0,0,0-.09.39,2.23,2.23,0,0,1-.09.39q-.12.84-.27,1.62t-.33,1.62q-.12.78-.27,1.56t-.27,1.62a4.09,4.09,0,0,0-.15.81,4.09,4.09,0,0,1-.15.81l-.12.75q-.06.39-.12.75-.3,1.56-.51,3l-.39,2.61q-.12.6-.18,1.17t-.12,1a5.28,5.28,0,0,0-.15.9q0,.42-.09.78t-.09.63a4.63,4.63,0,0,0,0,.51.67.67,0,0,0-.06.3v0a.67.67,0,0,1,.06-.3,4.64,4.64,0,0,0,.12-.45,6.48,6.48,0,0,1,.18-.63q.18-.78.36-1.68.12-.48.24-1t.24-1.2q.3-1.2.6-2.58t.6-2.88q.06-.42.12-.78a7.12,7.12,0,0,1,.18-.78q.06-.42.12-.78a7.12,7.12,0,0,1,.18-.78q.12-.84.27-1.62t.33-1.62q.12-.84.27-1.62t.27-1.56q.06-.24.09-.42t.09-.42a2.19,2.19,0,0,1,0-.36q0-.18.09-.42.06-.42.12-.78t.12-.78q.12-.72.24-1.47t.24-1.41q.12-.72.21-1.35t.21-1.29q.06-.3.09-.57t.09-.57a2.91,2.91,0,0,0,.06-.57,2.1,2.1,0,0,1,.06-.51,5.29,5.29,0,0,0,.15-.93q0-.45.09-.81t.09-.63A4.21,4.21,0,0,0,362.34,34.93Z"/><path d="M397.56,72.07a3.48,3.48,0,0,0,.45,1.17,4.78,4.78,0,0,0,.54.66q.27.27.48.51a1.73,1.73,0,0,1,.33.72h-3.12a1.5,1.5,0,0,1-.75-.33,1.06,1.06,0,0,1-.39-.69.8.8,0,0,1-.78,1h-3.18a1.48,1.48,0,0,1,.06-.72l.27-.78a8.69,8.69,0,0,0,.27-.93,4,4,0,0,0,.06-1.23l-1.56-9a2.07,2.07,0,0,0-.69-1,1.79,1.79,0,0,0-1.17-.42H384a1.71,1.71,0,0,0-1.11.42,2.51,2.51,0,0,0-.75,1l-1.5,9a5,5,0,0,0-.09,1.56,2.37,2.37,0,0,0,.27.78l.33.54a1.26,1.26,0,0,1,.09.78h-3.18a.74.74,0,0,1-.6-.3.9.9,0,0,1-.18-.72,1.17,1.17,0,0,1-.39.72,1.08,1.08,0,0,1-.75.3H373a1.2,1.2,0,0,1,.3-.72l.51-.48a3.52,3.52,0,0,0,.54-.63,4.36,4.36,0,0,0,.51-1.23L378.06,54a2.26,2.26,0,0,0-1.14-1.74,3.43,3.43,0,0,1,1.5-.42l3.48-19.68a4.43,4.43,0,0,0,.06-1.59,2.44,2.44,0,0,0-.3-.78q-.18-.27-.36-.51a1,1,0,0,1-.06-.78h4.14a.87.87,0,0,1,.84,1,1,1,0,0,1,.27-.66.82.82,0,0,1,.63-.3h4.08a1.48,1.48,0,0,1-.06.72q-.12.36-.3.78a5.64,5.64,0,0,0-.3.93,3.16,3.16,0,0,0,0,1.23L394,51.79a3.52,3.52,0,0,1,1.56.42A2.26,2.26,0,0,0,394.38,54ZM384.18,36q.06-.36.09-.63a4.63,4.63,0,0,0,0-.51.24.24,0,0,1,0-.15.12.12,0,0,0,0-.09v-.12a.17.17,0,0,0-.06.12.12.12,0,0,1,0,.09.24.24,0,0,0,0,.15,2.23,2.23,0,0,0-.09.45A3.13,3.13,0,0,1,384,36q-.18.66-.51,2.31t-.69,3.54q-.36,1.89-.75,3.75t-.63,2.94q-.18.78-.33,1.56t-.27,1.62q-.06.36-.33,1.83T380,56.59q-.27,1.62-.48,3T379.26,61q-.18,1-.3,1.92t-.3,1.86a4.39,4.39,0,0,1,0,.54q0,.24-.09.54a5.29,5.29,0,0,0-.15.93q0,.45-.09.81t-.09.63a4.21,4.21,0,0,0,0,.45.67.67,0,0,0-.06.3v.12a.17.17,0,0,0,.06-.12.67.67,0,0,1,.06-.3,2.23,2.23,0,0,0,.09-.45,3.13,3.13,0,0,1,.15-.63q.06-.18.24-1.11t.42-2l.45-2.1a6.91,6.91,0,0,1,.33-1.23q.06-.3.33-1.74l.57-3.06q.3-1.62.57-3t.27-1.47q.12-.84.3-1.62t.3-1.62Zm3.54,22.2a1.28,1.28,0,0,0,1-.48,1.34,1.34,0,0,0,.27-1.14l-.24-1.26a.53.53,0,0,0-.06-.24,3.19,3.19,0,0,0-.75-1.65,5.42,5.42,0,0,0-1.47-1.23,3,3,0,0,1,1.62-.48.27.27,0,0,1,.12,0,.27.27,0,0,0,.12,0l-2.16-12.36-2.16,12.36a.12.12,0,0,0,.09,0,.12.12,0,0,1,.09,0,2.68,2.68,0,0,1,1.62.48,4,4,0,0,0-2.22,2.88.35.35,0,0,1-.06.24l-.24,1.26a1.34,1.34,0,0,0,.27,1.14,1.28,1.28,0,0,0,1.05.48Zm6.42,10.44a.42.42,0,0,0,0,.18.27.27,0,0,1,0,.12v0a.27.27,0,0,0,0-.12.42.42,0,0,1,0-.18q0-.18,0-.48t-.09-.66a5.94,5.94,0,0,1-.09-.75,5.29,5.29,0,0,0-.15-.93,4.39,4.39,0,0,0,0-.54q0-.24-.09-.54t-.09-.57q0-.27-.09-.57-.12-.66-.18-1.29T393.12,61l-.24-1.44q-.12-.72-.24-1.5a10.07,10.07,0,0,0-.18-1.23q-.18-1-.36-2.1t-.36-2q-.18-.9-.18-1-.12-.84-.27-1.62T391,48.49q-.12-.78-.27-1.56t-.33-1.56l-.57-2.94-.51-2.58q-.24-1-.45-2T388.38,36q-.06-.36-.12-.63a4.64,4.64,0,0,0-.12-.45.53.53,0,0,1-.06-.24.17.17,0,0,0-.06-.12v.12a.12.12,0,0,0,0,.09.24.24,0,0,1,0,.15,2.1,2.1,0,0,1,.06.51,3.9,3.9,0,0,0,.06.63q.12.9.27,1.89t.27,2q.36,2.52.9,5.58l.24,1.56.24,1.56q.12.84.27,1.62t.33,1.62q.06.42.21,1.29t.33,1.83q.18,1,.36,1.86t.24,1.32q.18.78.33,1.53t.27,1.41q.12.66.27,1.32t.27,1.26l.12.6.12.6q.06.3.12.51t.12.51q.12.48.21.9t.15.78a6.48,6.48,0,0,1,.18.63A4.64,4.64,0,0,0,394.14,68.65Z"/><path d="M430,28.45a1.17,1.17,0,0,1-.21.78,6.43,6.43,0,0,0-.45.54,3.14,3.14,0,0,0-.45.78,4,4,0,0,0-.21,1.56v8a5.35,5.35,0,0,1-3.21-.81,5.48,5.48,0,0,1-1.66-1.83,5.75,5.75,0,0,1-.72-2.7V32.89a1.45,1.45,0,0,0-.41-1.08,1.19,1.19,0,0,0-2,0,1.46,1.46,0,0,0-.42,1.08v18.9a3.49,3.49,0,0,1,1.62.42,3.22,3.22,0,0,0-1.62,2.7V71.47a4.46,4.46,0,0,0,.21,1.59,2.77,2.77,0,0,0,.45.78l.46.51a1.24,1.24,0,0,1,.2.78h-3.17a1,1,0,0,1-.66-.27.7.7,0,1,0-1.29.27h-3.16a1.17,1.17,0,0,1,.21-.78l.45-.51a3.14,3.14,0,0,0,.46-.75,4.2,4.2,0,0,0,.21-1.5V54.91a4.15,4.15,0,0,0-.58-1.56,3.64,3.64,0,0,0-1.1-1.14,3.67,3.67,0,0,1,1.68-.42v-19a1.76,1.76,0,0,0-1.45-1.56,1.88,1.88,0,0,0-1,.54,1.42,1.42,0,0,0-.42,1.08v1.92a5.87,5.87,0,0,1-.72,2.7,5.55,5.55,0,0,1-1.65,1.83,5.44,5.44,0,0,1-3.21.81v-8a4.42,4.42,0,0,0-.21-1.56,3.92,3.92,0,0,0-.46-.78l-.45-.54a1.17,1.17,0,0,1-.21-.78h11.64a.89.89,0,0,1,.69.3,1,1,0,0,1,.28.72,1,1,0,0,1,.29-.72.92.92,0,0,1,.66-.3H430ZM417.91,55c0-.56,0-1.1,0-1.62V50.17c0-.52,0-1.06,0-1.62V45.43c-.05-1-.07-2-.07-2.91s0-1.81,0-2.61c0-.4-.07-.79-.07-1.17s0-.73-.05-1.05,0-.62,0-.9,0-.54,0-.78a3.1,3.1,0,0,1-.07-.63v-.45a.31.31,0,0,0,0-.18.25.25,0,0,1,0-.12v.3c0,.12,0,.27,0,.45a3.92,3.92,0,0,0,0,.63,7.14,7.14,0,0,1,0,.78c0,.28,0,.58,0,.9a6.85,6.85,0,0,0-.07,1.05c0,.38,0,.77-.05,1.17,0,.8-.08,1.67-.09,2.61s0,1.91,0,2.91V47a5.68,5.68,0,0,0-.05.81v8a2.68,2.68,0,0,0,0,.39,2.77,2.77,0,0,1,0,.39v1.56c0,.52,0,1,0,1.5s0,.94,0,1.38,0,.94,0,1.38,0,.86,0,1.26a3.51,3.51,0,0,0,0,.57c0,.18,0,.37,0,.57v.54a2.22,2.22,0,0,0,.07.54c0,.32,0,.62,0,.9a7.14,7.14,0,0,1,0,.78,3.92,3.92,0,0,0,0,.63c0,.18,0,.35,0,.51V69a.25.25,0,0,1,0-.12.31.31,0,0,0,0-.18V68.2a3.1,3.1,0,0,1,.07-.63c0-.24,0-.5,0-.78s0-.58,0-.9a3,3,0,0,1,0-.54c0-.16,0-.34,0-.54v-.57a3,3,0,0,1,.07-.57c0-.4,0-.82,0-1.26s0-.9,0-1.38,0-.9,0-1.38,0-1,0-1.5V55Z"/><path d="M462.3,71.45a4.52,4.52,0,0,0,.21,1.6,2.77,2.77,0,0,0,.45.78l.45.51a1.19,1.19,0,0,1,.21.79h-16.2a.85.85,0,0,1-1-1,.89.89,0,0,1-.3.69,1,1,0,0,1-.67.27h-3.23a1.17,1.17,0,0,1,.21-.78l.45-.51a3.14,3.14,0,0,0,.46-.75,4.24,4.24,0,0,0,.2-1.5V54.91a3.25,3.25,0,0,0-1.68-2.7,3.73,3.73,0,0,1,1.68-.42V32a4.24,4.24,0,0,0-.2-1.5,3.14,3.14,0,0,0-.46-.75l-.45-.51a1.17,1.17,0,0,1-.21-.78h3.23a.94.94,0,0,1,.67.3,1,1,0,0,1,.3.72,1,1,0,0,1,.27-.72.89.89,0,0,1,.69-.3h16.2a1.17,1.17,0,0,1-.21.78l-.45.54a3.49,3.49,0,0,0-.45.78,4.2,4.2,0,0,0-.21,1.56v8a5,5,0,0,1-4.86-2.64,5.75,5.75,0,0,1-.72-2.7V32.89a1.62,1.62,0,0,0-1.6-1.62h-4.29a1.54,1.54,0,0,0-1.13.48,1.56,1.56,0,0,0-.48,1.14V49a1.56,1.56,0,0,0,.48,1.14,1.77,1.77,0,0,0,1.13.54h.42a1.68,1.68,0,0,0,1.1-.54,1.6,1.6,0,0,0,.44-1.14V49a3.26,3.26,0,0,1,.48-1.56,3.54,3.54,0,0,1,1.07-1.08,3.74,3.74,0,0,1,2.08-.48V58.27a3.94,3.94,0,0,1-2.08-.45,3.19,3.19,0,0,1-1.55-2.61v-.06a1.6,1.6,0,0,0-.44-1.14,1.68,1.68,0,0,0-1.1-.54h-.42a1.77,1.77,0,0,0-1.13.54,1.56,1.56,0,0,0-.48,1.14V70.69a1.56,1.56,0,0,0,.48,1.14,1.54,1.54,0,0,0,1.13.48h4.29a1.52,1.52,0,0,0,1.13-.49,1.55,1.55,0,0,0,.47-1.15V68.8a5.68,5.68,0,0,1,.72-2.65,5.77,5.77,0,0,1,1.65-1.88,5.25,5.25,0,0,1,3.21-.84Zm-15.42-19.7V48.52q0-.42,0-.78t0-.78V45.4q-.06-1.5-.06-2.91t-.06-2.61q-.06-.6-.06-1.17a8.5,8.5,0,0,0-.06-1.05c0-.32,0-.62,0-.91s0-.53,0-.77a5.78,5.78,0,0,0,0-.63,4.21,4.21,0,0,1,0-.45v-.42a.17.17,0,0,0-.06.12v.3c0,.12,0,.27,0,.45a3.92,3.92,0,0,0,0,.63c0,.24,0,.5,0,.77s0,.59,0,.91a8.5,8.5,0,0,0-.06,1.05q0,.57-.06,1.17-.06,1.2-.06,2.61T446,45.4v2.34a5.54,5.54,0,0,1-.06.78V55a2.77,2.77,0,0,0,0,.39,2.77,2.77,0,0,1,0,.39v2.34q0,.78,0,1.5t0,1.38q0,.72,0,1.35t0,1.29a2.91,2.91,0,0,1,.06.57v.57a4.39,4.39,0,0,0,0,.54,4.39,4.39,0,0,1,0,.54c0,.32,0,.62,0,.89s0,.54,0,.79a3.92,3.92,0,0,0,0,.63c0,.18,0,.33,0,.45v.3a.17.17,0,0,0,.06.12v-.42a4.21,4.21,0,0,1,0-.45,5.78,5.78,0,0,0,0-.63c0-.25,0-.5,0-.79s0-.57,0-.89a2.78,2.78,0,0,0,.06-.54v-.54a5.17,5.17,0,0,1,0-.57,5.17,5.17,0,0,0,0-.57q0-.66,0-1.29t0-1.35q0-.66,0-1.38t0-1.5V56.17a1.23,1.23,0,0,1,.06-.39v-4Z"/><path d="M499.26,77.64a1.56,1.56,0,0,1,.93.43,1.82,1.82,0,0,1,.39.6,1.68,1.68,0,0,1,.06.78,13,13,0,0,1-3.59-.48,7.33,7.33,0,0,1-4.91-4.38,11.67,11.67,0,0,1-.8-4.26V60.07q0-.78-.06-1.92a7.66,7.66,0,0,0-.41-2.16,4.77,4.77,0,0,0-1.1-1.77,2.94,2.94,0,0,0-2.18-.75h-2.44a1.67,1.67,0,0,0-.92.57,1.55,1.55,0,0,0-.39,1.05V71.47a4.46,4.46,0,0,0,.21,1.59,2.77,2.77,0,0,0,.45.78l.45.51a1.17,1.17,0,0,1,.21.78H482a.85.85,0,0,1-1-1,.89.89,0,0,1-.3.69,1,1,0,0,1-.67.27h-3.23a1.16,1.16,0,0,1,.21-.78l.45-.52a2.69,2.69,0,0,0,.45-.75,4,4,0,0,0,.21-1.5V54.88a3.25,3.25,0,0,0-1.68-2.7,3.73,3.73,0,0,1,1.68-.42V32a4,4,0,0,0-.21-1.5,3,3,0,0,0-.45-.74l-.45-.51a1.17,1.17,0,0,1-.21-.78h3.23a.94.94,0,0,1,.67.3,1,1,0,0,1,.3.72,1,1,0,0,1,.27-.72.89.89,0,0,1,.69-.3h5.59a8.67,8.67,0,0,1,3.58.75,9.83,9.83,0,0,1,2.91,2,8.91,8.91,0,0,1,2,2.91,9.69,9.69,0,0,1,.77,3.54v6.47a9.31,9.31,0,0,1-4.38,8,8.69,8.69,0,0,1,3.2,3.33A9.4,9.4,0,0,1,496.86,60v10q0,1.32.06,2.58a15.6,15.6,0,0,0,.27,2.31,4.89,4.89,0,0,0,.69,1.77A2.08,2.08,0,0,0,499.26,77.64ZM481.5,51.79V48.55q0-.42,0-.78t0-.78V45.43q-.06-1.5-.06-2.91t-.06-2.61q-.06-.6-.06-1.17a8.5,8.5,0,0,0-.06-1.05q0-.48,0-.9t0-.78a5.78,5.78,0,0,0,0-.63,4.21,4.21,0,0,1,0-.45v-.42a.17.17,0,0,0-.06.12v.3a4.21,4.21,0,0,1,0,.45,5.78,5.78,0,0,0,0,.63q0,.36,0,.78t0,.9a8.5,8.5,0,0,0-.06,1.05q0,.57-.06,1.17-.06,1.2-.06,2.61t-.06,2.91v2.34a5.54,5.54,0,0,1-.06.78V55a2.77,2.77,0,0,0,0,.39,2.77,2.77,0,0,1,0,.39v2.34q0,.78,0,1.5t0,1.38q0,.72,0,1.35t0,1.29a2.91,2.91,0,0,1,.06.57v.57a4.39,4.39,0,0,0,0,.54,4.39,4.39,0,0,1,0,.54q0,.48,0,.9t0,.78a5.78,5.78,0,0,0,0,.63,4.21,4.21,0,0,1,0,.45V69a.17.17,0,0,0,.06.12v-.42a4.21,4.21,0,0,1,0-.45,5.78,5.78,0,0,0,0-.63q0-.36,0-.78t0-.9a2.78,2.78,0,0,0,.06-.54v-.54a5.17,5.17,0,0,1,0-.57,5.17,5.17,0,0,0,0-.57q0-.66,0-1.29t0-1.35q0-.66,0-1.38t0-1.5V56.2a1.23,1.23,0,0,1,.06-.39v-4Zm9.84-13.94q0-.78-.06-1.92a7.59,7.59,0,0,0-.41-2.15,4.77,4.77,0,0,0-1.1-1.77,3,3,0,0,0-2.18-.74h-2.14a1.84,1.84,0,0,0-1.13.51,1.43,1.43,0,0,0-.48,1.1V49a1.56,1.56,0,0,0,.48,1.14,1.77,1.77,0,0,0,1.13.54h2.14a2.94,2.94,0,0,0,2.18-.75,4.77,4.77,0,0,0,1.1-1.77,7.52,7.52,0,0,0,.41-2.15c0-.76.06-1.4.06-1.91Zm4,37.58v-.06l-.12-.12s0-.06,0-.06,0,0,0-.06l-.06-.12a.12.12,0,0,0,0-.09.12.12,0,0,1,0-.09s-.06-.06-.06-.18a5.44,5.44,0,0,1-.24-1q-.06-.3-.09-.6t0-.66a4.37,4.37,0,0,1-.06-.72V67.33q0-.48,0-.93t0-.93v-1a7.73,7.73,0,0,0-.06-1v-1a5,5,0,0,0-.06-.9q-.06-.9-.12-1.74t-.18-1.56a5,5,0,0,1-.18-.69,3.26,3.26,0,0,0-.18-.63q-.12-.3-.18-.51a2.63,2.63,0,0,0-.18-.45,2.94,2.94,0,0,1-.18-.3l-.12-.24-.12-.12v0a.17.17,0,0,0,.06.12,4.66,4.66,0,0,0,.24.6,4,4,0,0,1,.09.48q0,.24.09.54t.09.6q0,.3,0,.66.06.72.09,1.53t0,1.71a5,5,0,0,1-.06.9v5.7a3.19,3.19,0,0,0,0,.45,3.19,3.19,0,0,1,0,.45q0,.48,0,.9t.09.84q.06.42.09.81t.09.75a3.06,3.06,0,0,1,.15.69,2.23,2.23,0,0,0,.15.63l.21.51q.09.21.21.45l.21.3a2.25,2.25,0,0,0,.21.24s0,.06.12.06ZM493.8,40.51v1.92a2.11,2.11,0,0,0-.06.6v1.14a4.39,4.39,0,0,1,0,.54,3.87,3.87,0,0,0,0,.48,3,3,0,0,1,0,.48,2.58,2.58,0,0,0,0,.42.84.84,0,0,1-.06.36v.3a.17.17,0,0,0-.06.12V47a.12.12,0,0,1,0,.09.12.12,0,0,0,0,.09.17.17,0,0,1-.06.12h.06l.06-.12.06-.12a.17.17,0,0,0,.06-.12.17.17,0,0,0,.06-.12.24.24,0,0,0,.06-.18s.06,0,.06-.12a.92.92,0,0,0,.12-.36,33246717661322.92,33246717661322.92,0,0,1,.24-.84,1.9,1.9,0,0,0,.12-.54.6.6,0,0,0,.06-.27.6.6,0,0,1,.06-.27,1.39,1.39,0,0,1,0-.27,1.39,1.39,0,0,0,0-.27,2.11,2.11,0,0,0,.06-.6,3.21,3.21,0,0,0,.06-.63,3.21,3.21,0,0,1,.06-.63V39.25q0-.6-.06-1.26a.67.67,0,0,1-.06-.3.67.67,0,0,0-.06-.3,1.82,1.82,0,0,0-.06-.54q-.06-.3-.09-.54t-.09-.54a1,1,0,0,1-.12-.42,2.51,2.51,0,0,1-.12-.42l-.18-.36a1.05,1.05,0,0,0-.12-.3l-.18-.36a.17.17,0,0,1-.06-.12l-.06-.06v.06s0,.06,0,.06,0,0,0,.06a.48.48,0,0,1,.06.21.48.48,0,0,0,.06.21v.3a.84.84,0,0,1,.06.36.66.66,0,0,0,0,.21.66.66,0,0,1,0,.21v.48a2,2,0,0,1,.06.48v1.08a1.39,1.39,0,0,0,0,.27,1.69,1.69,0,0,1,0,.33v2.46Z"/><path class="cls-1" d="M83.39,224.51c-.19,2.62,1.39,4.91,3.75,4.91,1.48,0,2.45-1.1,2.45-3a3.16,3.16,0,0,0-1.1-2.67c-.48-.41-2.45-2.12-3.68-3.25A5.21,5.21,0,0,1,83,216.48c0-3.22,2-5.25,5.11-5.25a4.13,4.13,0,0,1,2.93,1l.52-1.19.29.11a27.37,27.37,0,0,0-.35,4.61l-.36.09c0-2.32-1.35-4.2-3-4.2s-2.39,1.21-2.39,3a3.52,3.52,0,0,0,1.16,2.61c2.46,2,3.3,2.79,4.2,3.51a4.68,4.68,0,0,1,1.55,3.75c0,3.13-2,5.36-5.84,5.36a10,10,0,0,1-4-.87c.16-1.62.16-3.42.19-4.32Z"/><path class="cls-1" d="M108.07,221.35c0,3.89.06,6.09.13,6.85,0,.55.22.75.64.78.78.06.91.18,1.62.21l-.16.34c-.62,0-2.65-.08-4.27-.08-1.32,0-3,.08-3.94.08l-.13-.34c.39,0,.71-.09,1.26-.15s1-.2,1-.75c0-1,.09-2.93.09-7v-4.41c0-2.06,0-4,0-4.82-2.29,0-2.52.32-3,1.28a22.58,22.58,0,0,0-1.22,2.93l-.29-.12a47.25,47.25,0,0,0,.45-4.75,42.73,42.73,0,0,0,4.71.26h2.46a28.76,28.76,0,0,0,5.1-.26,42.52,42.52,0,0,0-.22,4.46l-.33.18a11.6,11.6,0,0,0-1-3.05c-.32-.64-.74-1-2.87-.93,0,.82,0,2.5,0,4.41Z"/><path class="cls-1" d="M119.79,211.52c.74,0,3,.09,4.14.09h4a21.14,21.14,0,0,0,3.2-.18c-.1.9-.13,3.51-.1,4.35l-.35,0a6.5,6.5,0,0,0-.74-2.49c-.49-.93-1.23-1.28-3.2-1.28h-.87c-.36,0-.39.18-.42.47-.1.9-.17,2.69-.17,4.64V220h1.39c1.81,0,2.43-.72,2.59-2.38h.35a40.83,40.83,0,0,0-.06,5.6l-.32,0c-.36-1.77-.65-2.67-2.52-2.67a11.37,11.37,0,0,0-1.43,0v2.18c0,2.14.07,4.67.13,5.66,0,.52.29.66,1.55.66,2,0,2.49-.11,3.36-.93a7.07,7.07,0,0,0,1.59-3.16l.29.12c0,.69-.55,3.94-.71,4.58-.91-.09-2.14-.14-4.72-.14h-3c-1.51,0-3.39.08-4.13.08l.06-.34,1-.12c.45-.06.67-.2.74-.81.1-1,.16-2.85.16-5.57v-5.08c0-3.25,0-4.26-.1-5.13,0-.47-.35-.55-.87-.58l-.84-.06Z"/><path class="cls-1" d="M154.45,229.53c-.52,0-2-.08-3.68-.08-1.36,0-2.39.05-3.56.08l.1-.34c1.16-.15,1.36-.21,1.26-.85-.13-.81-.71-3.62-1.16-6-.49,0-1.26,0-2,0s-1.49,0-2,0c-.88,3.39-1.13,4.61-1.26,5.42-.17,1.08.09,1.22,2.1,1.43v.34c-.68,0-1.52-.08-2.49-.08-.65,0-1.78.08-2.65.08v-.34c1.45-.12,1.68-.32,2.07-1.57.9-3,3.42-12.07,4.1-14.48a10,10,0,0,0,.26-1.3,13.82,13.82,0,0,0,3.16-.58c.49,3.1,3.46,15.72,4,17.17.2.47.39.61.71.64l.94.12Zm-10.82-7.74c.48,0,1.26,0,1.9,0s1.39,0,1.75,0c-.49-2.41-1.2-6.09-1.58-8.12C145.21,215.46,144.53,217.81,143.63,221.79Z"/><path class="cls-1" d="M162.72,218c0-2.84,0-4.58-.07-5.31s-.26-.72-1.52-.84l0-.32c.58,0,2,.09,3.32.09,1.59,0,2.88-.09,3.59-.09l0,.32c-1.32.12-1.45.14-1.52.84s-.16,2.52-.16,5.42v2.32c2.52-1.94,5.11-6.29,5.85-7.74.22-.43.13-.61-.23-.64l-1.52-.17.2-.35c.64,0,1.1.09,2.26.09s1.91-.06,2.65-.09l0,.32a2.9,2.9,0,0,0-2.33.87c-.9,1-2.87,3.89-4,5.37a112.06,112.06,0,0,0,5.52,10.44c.36.46.49.52,1.78.64l-.13.37a29.14,29.14,0,0,0-3,0c-1.07.06-1.94.15-2.55.24-.49-1.11-3.07-6.21-3.91-8.07-.2-.41-.42-.9-.65-.93v2.12c0,3.08.1,4.7.16,5.43s.16.72,1.72.87l-.07.34c-.74,0-2.16-.08-3.75-.08-1.39,0-3.16.08-3.61.08v-.34c1.45-.12,1.61-.18,1.71-.87s.13-2.41.13-5.23Z"/><path class="cls-1" d="M218.21,229.53c-.52,0-2-.08-3.68-.08-1.36,0-2.39.05-3.56.08l.1-.34c1.16-.15,1.36-.21,1.26-.85-.13-.81-.71-3.62-1.16-6-.49,0-1.26,0-2,0s-1.49,0-2,0c-.88,3.39-1.14,4.61-1.26,5.42-.17,1.08.09,1.22,2.1,1.43v.34c-.68,0-1.52-.08-2.49-.08-.65,0-1.78.08-2.65.08v-.34c1.45-.12,1.68-.32,2.07-1.57.9-3,3.42-12.07,4.1-14.48a10,10,0,0,0,.26-1.3,13.82,13.82,0,0,0,3.16-.58c.49,3.1,3.46,15.72,4,17.17.19.47.39.61.71.64l.94.12Zm-10.82-7.74c.48,0,1.26,0,1.9,0s1.39,0,1.75,0c-.49-2.41-1.2-6.09-1.59-8.12C209,215.46,208.29,217.81,207.39,221.79Z"/><path class="cls-1" d="M224.5,211.52c.39,0,1.69.09,2.75.09.78,0,1.46,0,2.49-.09.26.46.55,1.1,1.19,2.26.71,1.39,2.56,4.67,5.85,10.56,0-7.08-.1-10.35-.16-11.14-.13-.95-.39-1.24-1.33-1.3l-.9-.06.1-.32c.61,0,1.68.09,2.58.09s1.78-.09,2.39-.09v.32a8.5,8.5,0,0,0-1.16.2c-.36.09-.49.38-.58.9a84.24,84.24,0,0,0-.39,9.57v7a10.13,10.13,0,0,0-1.91.29c-2.06-3.89-5.71-10.68-8.36-15.7,0,9.05.06,12.71.16,14a.9.9,0,0,0,.81.92c.32.06,1.06.15,1.45.24l0,.34c-.65,0-1.75-.08-3-.08s-1.68.08-2.16.08v-.34a10.35,10.35,0,0,0,1.1-.21c.51-.11.68-.49.77-1.19.1-1.1.42-6.15.42-14.44a2.89,2.89,0,0,0-.35-.93,1,1,0,0,0-.68-.46l-1-.12Z"/><path class="cls-1" d="M248,217.61c0-2.87-.07-4.49-.07-5.07,0-.41-.25-.53-.64-.58l-1.1-.12,0-.32c.55,0,2.07.09,3.46.09,1.1,0,2.26-.09,3.49-.09,2.64,0,4.16.46,5.13,1.16,1.88,1.33,2.84,3.65,2.84,7,0,4-1.13,7.34-3.87,8.85a10,10,0,0,1-4.78,1c-1.2,0-2.33-.08-3.52-.08s-2.39.08-2.91.08l0-.34.78-.06c.68-.09.9-.29.93-.79s.2-3.16.2-6.23Zm3.68,4.61c0,4.5,0,5.66.06,6.36,0,.4.13.52.94.52a3.24,3.24,0,0,0,2.91-1.51c.74-1.13,1.45-3.34,1.45-7.6,0-3.07-.48-5.48-1.39-6.64a3.34,3.34,0,0,0-2.87-1.42c-.94,0-.91.23-.94.55s-.16,2.11-.16,5.39Z"/><path class="cls-1" d="M409.39,216.57c-.23-1.83-.94-4.88-3.36-4.88a2.84,2.84,0,0,0-2.62,1.72,15.89,15.89,0,0,0-1.48,7.16,15.56,15.56,0,0,0,1,5.92,3.3,3.3,0,0,0,3.26,2.26c1.26,0,3.07-.55,3.84-3.57l.39.23c-.61,2.85-2.39,4.44-5.59,4.44-2.87,0-4.62-1-5.72-2.93a12.05,12.05,0,0,1-1.35-5.92c0-3.48,1-6,2.62-7.65a6.87,6.87,0,0,1,5.32-2.12c1.68,0,2.91.41,3.53,1.22l.38-1.22.36.15a34.37,34.37,0,0,0-.13,5Z"/><path class="cls-1" d="M419.6,218c0-2.76,0-4.38,0-5.28s-.42-.87-1.64-.9v-.32c.84,0,2.45.09,3.29.09s3.1-.09,3.78-.09l0,.32c-1,0-1.42.17-1.49,1s-.16,2.64-.16,4.64v2.29c.52,0,1.29,0,2.2,0s1.61,0,2.26,0V217c0-2.49-.07-3.51-.1-4.38,0-.67-.51-.78-1.48-.81l.06-.32c.87,0,2.71.09,3.36.09,1.13,0,3,0,3.55-.09v.32c-1.22.06-1.48.17-1.55.81-.06.93-.13,2.93-.13,5v4.84c0,2.85.07,5.28.13,6.07,0,.43.29.49,1.75.61l-.1.34c-.71,0-2.2-.08-3.72-.08-1.35,0-2.74.05-3.39.08v-.34c1.1-.12,1.43-.21,1.46-.93,0-.55.16-2.06.16-5v-2.9c-.55,0-1.36-.06-2.26-.06s-1.68,0-2.2.06v3.07c0,2.53.07,4.21.1,4.88s.55.87,1.64.9v.34c-.84,0-2.61-.08-4.06-.08-1.07,0-2.17.08-3.24.08v-.34c1.23,0,1.62-.15,1.65-.82s.2-2.29.2-5Z"/><path class="cls-1" d="M448.41,211.23c5.3,0,6.88,4.93,6.88,8.85,0,5.45-1.84,9.77-6.91,9.77-5.4,0-7.08-4.75-7.08-9.22s1.91-9.4,7.08-9.4Zm-.16.41c-.81,0-1.3.55-1.75,1.5a20.89,20.89,0,0,0-1,7.05c0,3.14.46,6.53,1,7.75s1,1.48,1.87,1.48,1.39-.47,1.84-1.86a24.63,24.63,0,0,0,.78-6.76,25.6,25.6,0,0,0-.91-7.57c-.45-1.13-.94-1.59-1.87-1.59Z"/><path class="cls-1" d="M465.14,217.41c0-2.7,0-4-.07-4.85,0-.34-.06-.52-.61-.58l-1.29-.11.19-.35c.52,0,2,.09,3.26.09s2-.09,3.62-.09c2.68,0,3.81.46,4.56,1.25a5.4,5.4,0,0,1,1.32,3.8,5.84,5.84,0,0,1-1.26,3.83,5.41,5.41,0,0,1-5.3,1.5v-.37a3.64,3.64,0,0,0,.75.05,1.33,1.33,0,0,0,1.16-.78,10.16,10.16,0,0,0,.71-4.18,8,8,0,0,0-.78-3.91,1.91,1.91,0,0,0-1.71-.75c-.51,0-.64,0-.68.55-.06,1-.16,2.9-.16,5.68v6.21c0,2.17.07,3.22.1,3.77s.16.75.77.84l1.43.18-.07.34c-1,0-2.62-.08-4.2-.08-1.23,0-2.87.08-3.71.08v-.34l.84-.12c.77-.09.9-.23,1-1.1.13-1.45.16-4.38.16-6.88Z"/><path class="cls-1" d="M496.11,218c0-2.76,0-4.38,0-5.28s-.42-.87-1.65-.9v-.32c.84,0,2.46.09,3.3.09s3.1-.09,3.78-.09l0,.32c-1,0-1.43.17-1.49,1s-.16,2.64-.16,4.64v2.29c.51,0,1.29,0,2.2,0s1.61,0,2.26,0V217c0-2.49-.07-3.51-.1-4.38,0-.67-.52-.78-1.49-.81l.07-.32c.87,0,2.71.09,3.36.09,1.13,0,3,0,3.55-.09v.32c-1.23.06-1.49.17-1.55.81-.06.93-.13,2.93-.13,5v4.84c0,2.85.07,5.28.13,6.07,0,.43.29.49,1.75.61l-.1.34c-.71,0-2.2-.08-3.72-.08-1.35,0-2.74.05-3.39.08v-.34c1.1-.12,1.42-.21,1.45-.93,0-.55.17-2.06.17-5v-2.9c-.55,0-1.36-.06-2.26-.06s-1.69,0-2.2.06v3.07c0,2.53.06,4.21.09,4.88s.55.87,1.65.9v.34c-.84,0-2.61-.08-4.07-.08-1.06,0-2.16.08-3.23.08v-.34c1.23,0,1.62-.15,1.65-.82s.19-2.29.19-5Z"/><path class="cls-1" d="M524.92,211.23c5.3,0,6.89,4.93,6.89,8.85,0,5.45-1.85,9.77-6.92,9.77-5.39,0-7.07-4.75-7.07-9.22s1.9-9.4,7.07-9.4Zm-.16.41c-.8,0-1.29.55-1.74,1.5a20.63,20.63,0,0,0-1,7.05c0,3.14.45,6.53,1,7.75s1,1.48,1.88,1.48,1.39-.47,1.84-1.86a24.71,24.71,0,0,0,.77-6.76,25.66,25.66,0,0,0-.9-7.57c-.45-1.13-.94-1.59-1.87-1.59Z"/><path class="cls-1" d="M548.12,228.9c1.68,0,3.23-.56,3.39-4.27.22-4.9.06-9.77,0-11.43-.07-1-.42-1.16-.94-1.22l-1.16-.14,0-.32c.58,0,1.58.09,2.45.09s1.36-.09,2.33-.09l.09.32-.93.09c-.62,0-.78.37-.81,1.21-.16,3.51-.19,9.23-.39,11.61s-.9,3.3-1.65,3.91a5.69,5.69,0,0,1-3.81,1.13c-2.19,0-3.78-.58-4.65-1.76a6.28,6.28,0,0,1-.81-3.6c-.06-2.82.07-10.18,0-11.49,0-.67-.13-.93-.58-1l-1-.12v-.32c1.1,0,2.23.09,3.46.09s2.62-.09,3.39-.09l0,.32-.87.12c-.42,0-.52.29-.55.72-.16,2.7-.32,8.53-.09,13a3.29,3.29,0,0,0,.77,2.43,3.38,3.38,0,0,0,2.29.79Z"/><path class="cls-1" d="M562.23,224.51c-.19,2.62,1.39,4.91,3.75,4.91,1.48,0,2.45-1.1,2.45-3a3.16,3.16,0,0,0-1.1-2.67c-.48-.41-2.45-2.12-3.68-3.25a5.21,5.21,0,0,1-1.81-4.06c0-3.22,2-5.25,5.11-5.25a4.18,4.18,0,0,1,2.94,1l.51-1.19.29.11a28.53,28.53,0,0,0-.35,4.61l-.36.09c0-2.32-1.35-4.2-3-4.2s-2.39,1.21-2.39,3a3.52,3.52,0,0,0,1.16,2.61c2.46,2,3.3,2.79,4.2,3.51a4.68,4.68,0,0,1,1.55,3.75c0,3.13-2,5.36-5.84,5.36a10,10,0,0,1-4-.87c.16-1.62.16-3.42.2-4.32Z"/><path class="cls-1" d="M579,211.52c.74,0,3,.09,4.13.09h4a21.24,21.24,0,0,0,3.2-.18c-.1.9-.13,3.51-.1,4.35l-.36,0a6.5,6.5,0,0,0-.74-2.49c-.48-.93-1.23-1.28-3.2-1.28h-.87c-.35,0-.39.18-.42.47-.1.9-.16,2.69-.16,4.64V220h1.39c1.81,0,2.42-.72,2.58-2.38h.36a42.61,42.61,0,0,0-.07,5.6l-.32,0c-.35-1.77-.65-2.67-2.52-2.67a11.21,11.21,0,0,0-1.42,0v2.18c0,2.14.06,4.67.13,5.66,0,.52.29.66,1.55.66,2,0,2.49-.11,3.36-.93a7.05,7.05,0,0,0,1.58-3.16l.29.12c0,.69-.55,3.94-.71,4.58-.9-.09-2.13-.14-4.71-.14h-3c-1.52,0-3.39.08-4.14.08l.07-.34,1-.12c.45-.06.68-.2.74-.81.1-1,.16-2.85.16-5.57v-5.08c0-3.25,0-4.26-.09-5.13,0-.47-.36-.55-.87-.58l-.84-.06Z"/><line class="cls-2" x1="378" y1="184.5" x2="653" y2="183.5"/><line class="cls-2" x1="14" y1="185.5" x2="289" y2="184.5"/><g id="SKULL" class="cls-3"><path id="whole_head" data-name="whole head" class="cls-4" d="M301.08,102.62l-2-2s-4-2-5-2h-3c-1,0-2-1-4-1a38.69,38.69,0,0,0-9,1c-5,1-5,1-23,2s-27,4-37,5-5,2-13,2-11,1-24,0-15-1-15-1-34-14-41-16l-4-4a88.13,88.13,0,0,1-21-18s-5-6-8-8a73.54,73.54,0,0,1-8-12,27.08,27.08,0,0,0-7-8s-5-7-8-9a105.66,105.66,0,0,0-12-10s-7-2-6,2a3.1,3.1,0,0,0,1,2,73.46,73.46,0,0,1,14,21s3,3,13,22c0,0,20,27,22,28l16,16s11,4,12,7c0,0,32,17,40,16,0,0,28,4,43-1,0,0,44-7,41-5,0,0,13-2,22,6,0,0,5,3,8-1,0,0,21,7,9,27,0,0-10,10-4,20,0,0-5,15,8,23,0,0,3,3,3,18,0,0-5,8,2,14,0,0-1,2,4,8,0,0,2,7,4,9,0,0,2,3,2,5s3,20,3,32c0,0-2,3-1,5l4,6s4,2,6,0c0,0,3,3,5,3a4.38,4.38,0,0,0,3-1,12.13,12.13,0,0,0,1-5s-2-3-1-9v-7s2,4,2,6c0,0-1,3,0,4,0,0,2,3,1,8,0,0,2,3,3,2,0,0,3-3,4-2,0,0,6-2,8-6,0,0,1-7,0-10,0,0,1-28,2-29,0,0,1-3,3-4a32.17,32.17,0,0,0,4-7s5-5,5-7c0,0,4-2,4-4,0,0,2-8-1-11,0,0-2-17,1-19,0,0,7-2,8-5,0,0,5-9,2-14,0,0,7-10,1-16,0,0-18-17,7-34,0,0,3,3,16-3,0,0,19-5,61,3,0,0,33,5,61-14,0,0,35-19,43-32,0,0,17-22,22-25,0,0,13-22,14-25,0,0,7-12,13-15,0,0,6-5-5-3,0,0-13,10-16,13,0,0-31,32-36,37,0,0-6,5-9,10,0,0-26,16-30,17l-21,7s-34,1-52-3c0,0-33-5-45-5,0,0-27-5-34,5l-2,1s-4-2-14-2c0,0-5-1-15,2,0,0-6,1-17-3,0,0-4-3-11,1C308.08,100.62,303.08,104.62,301.08,102.62Z"/><path id="hornright" class="cls-5" d="M389.58,135.12s4,0,11.5-3.5c0,0,19-5,61,3,0,0,33,5,61-14,0,0,35-19,43-32,0,0,17-22,22-25,0,0,13-22,14-25,0,0,7-12,13-15,0,0,6-5-5-3,0,0-13,10-16,13,0,0-31,32-36,37,0,0-6,5-9,10,0,0-26,16-30,17l-21,7s-34,1-52-3c0,0-33-5-45-5,1.51,1.16-11.93-3.76-24.5.5C392.37,90.66,400,136.18,389.58,135.12Z"/><path id="nostril_shadow" data-name="nostril shadow" class="cls-6" d="M329.58,266.12s-.2,12.08-.6,14,4.87.42,4.87.42-2.27-13.46-1.27-14.46S329.58,266.12,329.58,266.12Z"/><path id="right_nostril" data-name="right nostril" class="cls-7" d="M321.58,284.12s2,9,3,9c0,0,3,1,3-4,0,0,3-16,2-22"/><path id="left_nostril" data-name="left nostril" class="cls-7" d="M332.58,267.12c-1,6,3.2,22,3.2,22,0,5,3,4,3,4,1,0,3-9,3-9"/><path id="Hornleft" class="cls-5" d="M278.08,98.62c-4.86,1.53-5,1-23,2s-27,4-37,5-5,2-13,2-11,1-24,0-15-1-15-1-34-14-41-16l-4-4a88.13,88.13,0,0,1-21-18s-5-6-8-8a73.54,73.54,0,0,1-8-12,27.08,27.08,0,0,0-7-8s-5-7-8-9a105.66,105.66,0,0,0-12-10s-7-2-6,2a3.1,3.1,0,0,0,1,2,73.46,73.46,0,0,1,14,21s3,3,13,22c0,0,20,27,22,28l16,16s6.5,5.5,12,7c0,0,32,17,40,16,0,0,28,4,43-1,0,0,41.5-4.5,41-5,0,0,13-2,22,6C271.48,136.17,279.53,98.16,278.08,98.62Z"/><path id="left_hornshadow" data-name="left hornshadow" class="cls-8" d="M274.5,99.27s-10.42,2.35-7.42,30.35l1.77,2.37s7.85,6.54,10.79,4.84c0,0-13.65-18.12,7.44-39.21C287.08,97.62,277.41,97.43,274.5,99.27Z"/><path id="right_hornshadow" data-name="right hornshadow" class="cls-9" d="M389.12,135c6.55-43.11-15.27-37.39-15.27-37.39s8.77-4,13.75-2.27c0,0,11.46,3.62,8.72,37.69,0,0,1,1.86-4.88,2Z"/><path id="left_eye" data-name="left eye" class="cls-10" d="M288.17,181.62s-5.47,15.52,8.76,25.51c0,0,10,1.6,12.15.49,0,0-3.63-3.27-4.06-6.32C305,201.3,302.4,189.38,288.17,181.62Z"/><path id="right_eye" data-name="right eye" class="cls-11" d="M377,184.26a12.07,12.07,0,0,1,1.07,5.36c-.06,5.44-2.39,13.86-11.73,19.41,0,0-9.17,1.86-11.27.59,0,0,3.34-3,4-6C359.62,203.06,363.31,189.79,377,184.26Z"/><path id="right_eyebrow" data-name="right eyebrow" class="cls-7" d="M377.08,184.62s-13,6-14,12c0,0-6.7,16.28-15.43,17a3,3,0,0,0-1,.23c-.92.38-3.26.9-5.59-2.21"/><path id="left_eyebrow" data-name="left eyebrow" class="cls-7" d="M324.08,210.62c-2.36,3.15-4.73,2.58-5.62,2.19a2.87,2.87,0,0,0-.92-.21c-8.74-.66-15.46-17-15.46-17-1-6-13.5-13.5-13.5-13.5"/><path id="nose_bridge_shadow" data-name="nose bridge shadow" class="cls-12" d="M324.58,240.12l-1-3s-5.5,10.5-5.5,16.5c0,0-1,14,2,25l2,7s-1-9,2-14l4-2,2-3h2a10.82,10.82,0,0,0,6,4,14.09,14.09,0,0,1,3,5s2,8,0,10v3s3,0,5-25c0,0,0-20.5-5-24.75l-1.5-.75"/><path id="nose_bridge" data-name="nose bridge" class="cls-4" d="M321.58,213.12l2.5,51.5s0,1,3,4c0,0,0-10,2-7,0,0,1,3,2,3s2-6,3-3l1,6s1,0,2-3l5.5-51.5"/><path id="left_cheekbone" data-name="left cheekbone" class="cls-13" d="M321.58,227.26c-8.5,2.65-21.5-14.64-21.5-14.64a47.68,47.68,0,0,1-4-8c-2-5,4-3,4-3s3-2,4-1c-.88-.59,9.06,13.37,13,12"/><path id="center_ridge" data-name="center ridge" class="cls-14" d="M333.58,116.12s0,72-1,94l-1,54"/><path id="right_cheekbone" data-name="right cheekbone" class="cls-13" d="M341,227.62c4,5,5.05,0,5.05,0,14-6,13-11,13-11s7-5.47,7.5-9.24a2.28,2.28,0,0,0-2.5-2.76s-.47-1.52-3-3c0,0-7,10-10,11-.72.65-2.8.78-4,1-2.15.39-3,1-5-1Z"/><path id="left_temple" data-name="left temple" class="cls-15" d="M282.58,135.12s14.8,15.7,11.4,22.85C294,158,301.58,140.12,282.58,135.12Z"/><path id="right_temple" data-name="right temple" class="cls-16" d="M385.58,135.12s-12.68,14.6-12.84,24.8C372.74,159.92,367.58,145.12,385.58,135.12Z"/></g></svg>
