<svg id="Layer_2" data-name="Layer 2" xmlns="http://www.w3.org/2000/svg" xmlns:xlink="http://www.w3.org/1999/xlink" width="667" height="314" viewBox="0 0 667 314"><defs><style>.cls-1,.cls-12,.cls-5{fill:none;}.cls-1,.cls-10,.cls-11,.cls-12,.cls-13,.cls-14,.cls-2,.cls-3,.cls-5,.cls-6,.cls-7{stroke:#000;}.cls-1,.cls-10,.cls-5{stroke-miterlimit:10;}.cls-11,.cls-2{fill:#fff;}.cls-11,.cls-12,.cls-13,.cls-14,.cls-2,.cls-3,.cls-5,.cls-6,.cls-7{stroke-linecap:round;}.cls-11,.cls-12,.cls-13,.cls-14,.cls-2,.cls-3,.cls-6,.cls-7{stroke-linejoin:round;}.cls-10,.cls-13,.cls-14,.cls-2,.cls-3,.cls-5,.cls-6,.cls-7{stroke-width:0.5px;}.cls-3{fill:#090805;}.cls-4{fill:url(#linear-gradient);}.cls-6{fill:url(#linear-gradient-2);}.cls-7{fill:url(#linear-gradient-3);}.cls-8{fill:url(#linear-gradient-4);}.cls-9{fill:url(#linear-gradient-5);}.cls-10{fill:url(#linear-gradient-6);}.cls-11,.cls-12{stroke-width:0.25px;}.cls-13{fill:url(#radial-gradient);}.cls-14{fill:url(#radial-gradient-2);}</style><linearGradient id="linear-gradient" x1="331.94" y1="275.44" x2="332.78" y2="261.26" gradientUnits="userSpaceOnUse"><stop offset="0.16" stop-color="#fff"/><stop offset="0.72" stop-color="#535353"/><stop offset="1"/></linearGradient><linearGradient id="linear-gradient-2" x1="267.18" y1="112.36" x2="287.73" y2="112.36" gradientUnits="userSpaceOnUse"><stop offset="0" stop-color="#090805"/><stop offset="0.09" stop-color="#100f0c"/><stop offset="0.22" stop-color="#23221f"/><stop offset="0.37" stop-color="#42423f"/><stop offset="0.55" stop-color="#6e6e6c"/><stop offset="0.74" stop-color="#a6a6a5"/><stop offset="0.94" stop-color="#e9e9e9"/><stop offset="1" stop-color="#fff"/></linearGradient><linearGradient id="linear-gradient-3" x1="374.49" y1="109.96" x2="397.39" y2="109.96" gradientUnits="userSpaceOnUse"><stop offset="0" stop-color="#fff"/><stop offset="0.11" stop-color="#ececec"/><stop offset="0.32" stop-color="#bcbcbb"/><stop offset="0.63" stop-color="#6e6e6c"/><stop offset="1" stop-color="#090805"/></linearGradient><linearGradient id="linear-gradient-4" x1="294.12" y1="204.51" x2="299.88" y2="187.86" gradientUnits="userSpaceOnUse"><stop offset="0.29" stop-color="#fff"/><stop offset="0.57" stop-color="#797876"/><stop offset="0.81" stop-color="#090805"/></linearGradient><linearGradient id="linear-gradient-5" x1="366.08" y1="204.51" x2="371.84" y2="187.86" gradientTransform="matrix(-1, -0.04, -0.04, 1, 747.33, 16.21)" xlink:href="#linear-gradient-4"/><linearGradient id="linear-gradient-6" x1="334.47" y1="286.1" x2="329.76" y2="210.43" gradientUnits="userSpaceOnUse"><stop offset="0" stop-color="#fff"/><stop offset="0.38" stop-color="#5b5a58"/><stop offset="0.58" stop-color="#090805"/></linearGradient><radialGradient id="radial-gradient" cx="289.68" cy="141.54" r="11.02" gradientTransform="translate(81.33 -109.7) rotate(22.89) scale(1 1.06)" gradientUnits="userSpaceOnUse"><stop offset="0" stop-color="#090805"/><stop offset="0.24" stop-color="#0b0a07"/><stop offset="0.37" stop-color="#13120f"/><stop offset="0.47" stop-color="#21201d"/><stop offset="0.56" stop-color="#343330"/><stop offset="0.64" stop-color="#4c4c4a"/><stop offset="0.72" stop-color="#6b6a68"/><stop offset="0.79" stop-color="#8f8f8d"/><stop offset="0.85" stop-color="#b9b9b8"/><stop offset="0.92" stop-color="#e7e7e7"/><stop offset="0.94" stop-color="#fff"/></radialGradient><radialGradient id="radial-gradient-2" cx="379.46" cy="142.52" r="9.99" gradientTransform="translate(0 -49.59) scale(1 1.35)" gradientUnits="userSpaceOnUse"><stop offset="0.34" stop-color="#090805"/><stop offset="0.5" stop-color="#464643"/><stop offset="1" stop-color="#fff"/></radialGradient></defs><title>LOGO1c</title><path d="M177.88,34.11A9.19,9.19,0,0,1,173,42.33a12.25,12.25,0,0,1,3.51,4.38,15.12,15.12,0,0,1,1,2.7,10.67,10.67,0,0,1,.36,2.7V56a9.78,9.78,0,0,1-.77,3.57,9,9,0,0,1-2,2.88,9.83,9.83,0,0,1-2.93,2,8.64,8.64,0,0,1-3.58.75H163a.89.89,0,0,1-.69-.3,1,1,0,0,1-.27-.72,1,1,0,0,1-.3.72.94.94,0,0,1-.67.3h-3.23a1.17,1.17,0,0,1,.21-.78l.45-.51a2.85,2.85,0,0,0,.45-.75,4,4,0,0,0,.21-1.5V44.85a3.21,3.21,0,0,0-1.68-2.64,3.15,3.15,0,0,1,1.68-.48V22a4,4,0,0,0-.21-1.5,2.85,2.85,0,0,0-.45-.75l-.45-.51a1.17,1.17,0,0,1-.21-.78h3.23a1,1,0,0,1,.67.27.89.89,0,0,1,.3.69.85.85,0,0,1,1-1h5.62a8.94,8.94,0,0,1,3.58.72,9.39,9.39,0,0,1,2.93,1.95,8.94,8.94,0,0,1,2,2.91,9.9,9.9,0,0,1,.77,3.54Zm-15.42,7.68V38.55q0-.42,0-.81t0-.75V35.43q-.06-1.56-.06-2.94t-.06-2.58q-.06-.66-.06-1.2a8.23,8.23,0,0,0-.06-1q0-.48,0-.93t0-.75q0-.36,0-.66t0-.48v-.36a.17.17,0,0,0-.06.12v.24q0,.18,0,.48t0,.66q0,.3,0,.75t0,.93a8.23,8.23,0,0,0-.06,1q0,.54-.06,1.2-.06,1.2-.06,2.58t-.06,2.94v2.31a5.73,5.73,0,0,1-.06.81V45a2.58,2.58,0,0,0,0,.42,2.58,2.58,0,0,1,0,.42v2.28q0,.78,0,1.53t0,1.41q0,.66,0,1.32t0,1.32a2.91,2.91,0,0,1,.06.57v.57a4.39,4.39,0,0,0,0,.54,3.87,3.87,0,0,1,0,.48q0,.48,0,.93t0,.81a5.78,5.78,0,0,0,0,.63,4.21,4.21,0,0,1,0,.45V59a.17.17,0,0,0,.06.12v-.42a4.21,4.21,0,0,1,0-.45,5.78,5.78,0,0,0,0-.63q0-.36,0-.81t0-.93a2,2,0,0,0,.06-.48v-.54a5.17,5.17,0,0,1,0-.57,5.17,5.17,0,0,0,0-.57q0-.66,0-1.32t0-1.32q0-.66,0-1.41t0-1.53v-1.5a3.57,3.57,0,0,1,.06-.78v-4Zm9.84-14q0-.78-.06-1.89a8,8,0,0,0-.41-2.13A4.66,4.66,0,0,0,170.72,22a2.92,2.92,0,0,0-2.17-.75h-2.14a1.54,1.54,0,0,0-1.13.48,1.56,1.56,0,0,0-.48,1.14V39a1.56,1.56,0,0,0,.48,1.14,1.54,1.54,0,0,0,1.13.48h2.14a3,3,0,0,0,2.17-.72,4.38,4.38,0,0,0,1.11-1.77,8.34,8.34,0,0,0,.41-2.16q.06-1.11.06-1.89Zm0,24.3q0-.78-.06-2.22a15,15,0,0,0-.41-2.88,7.27,7.27,0,0,0-1.11-2.49,2.49,2.49,0,0,0-2.17-1.05h-2.14a1.54,1.54,0,0,0-1.13.48,1.56,1.56,0,0,0-.48,1.14v15.6a1.46,1.46,0,0,0,.48,1.11,1.84,1.84,0,0,0,1.13.51h2.14a2.92,2.92,0,0,0,2.17-.75,4.66,4.66,0,0,0,1.11-1.77,8,8,0,0,0,.41-2.16q.06-1.14.06-1.92ZM175,35.73a2,2,0,0,0,.12-.48,1.07,1.07,0,0,0,.12-.48.76.76,0,0,0,0-.27.77.77,0,0,1,0-.27,1.39,1.39,0,0,1,0-.27,3.25,3.25,0,0,0,0-.33,2.86,2.86,0,0,0,0-.6,3.05,3.05,0,0,0,.06-.6,3.05,3.05,0,0,1,.06-.6V29.22q0-.63-.06-1.23a1.05,1.05,0,0,1-.06-.33.6.6,0,0,0-.06-.27,2.7,2.7,0,0,0-.05-.6q-.06-.3-.09-.54a4,4,0,0,0-.08-.48,1.79,1.79,0,0,1-.11-.48.92.92,0,0,1-.12-.36l-.16-.36a.41.41,0,0,0-.12-.3,2.17,2.17,0,0,0-.17-.42l-.12-.12v.06s0,.06,0,.06,0,0,0,.06a.24.24,0,0,1,.06.18.53.53,0,0,0,.06.24v.3a.84.84,0,0,1,.06.36.66.66,0,0,0,0,.21.66.66,0,0,1,0,.21v.42a2,2,0,0,1,.06.48v1.14a1.39,1.39,0,0,0,0,.27,1.39,1.39,0,0,1,0,.27v4.44a2.11,2.11,0,0,0-.06.6v1.14a4.39,4.39,0,0,1,0,.54,3.87,3.87,0,0,0,0,.48,3.19,3.19,0,0,1,0,.45,2.77,2.77,0,0,0,0,.39.62.62,0,0,1-.06.36v.36s-.06,0-.06.12V37a.12.12,0,0,1,0,.09.12.12,0,0,0,0,.09.17.17,0,0,1-.06.12l.12-.12a.12.12,0,0,1,0-.09.12.12,0,0,0,0-.09s.06,0,.06-.12.06,0,.06-.12.06,0,.06-.12a.24.24,0,0,0,.06-.18.41.41,0,0,0,.12-.3A2.51,2.51,0,0,0,175,35.73ZM174.76,53v1.8a2.11,2.11,0,0,0-.06.6v1.08a4.39,4.39,0,0,1,0,.54,3.87,3.87,0,0,0,0,.48,2.58,2.58,0,0,1,0,.42,2.19,2.19,0,0,0,0,.36v.18a.24.24,0,0,0-.06.18v.3a.17.17,0,0,0-.06.12v.12a.12.12,0,0,1,0,.09.12.12,0,0,0,0,.09.17.17,0,0,1-.06.12h.06l.06-.12.06-.12a2832287318505.78,2832287318505.78,0,0,1,.18-.36.24.24,0,0,0,.05-.18.41.41,0,0,0,.12-.3,4.72,4.72,0,0,0,.22-.84,2.32,2.32,0,0,0,.11-.48.6.6,0,0,0,.06-.27.59.59,0,0,1,.05-.27,1.39,1.39,0,0,1,0-.27,1.39,1.39,0,0,0,0-.27,2.34,2.34,0,0,0,0-.54,3.05,3.05,0,0,0,.06-.6,3.05,3.05,0,0,1,.06-.6V51.69q0-.3,0-.6t-.09-.6a2.34,2.34,0,0,0,0-.54,1.39,1.39,0,0,0,0-.27,1.39,1.39,0,0,1,0-.27.6.6,0,0,1-.06-.27.76.76,0,0,0-.05-.27,1,1,0,0,0,0-.24,1,1,0,0,1,0-.24A2,2,0,0,1,175,48c0-.12-.1-.26-.17-.42a.41.41,0,0,0-.12-.3.44.44,0,0,0-.11-.3l-.17-.36a.17.17,0,0,1-.06-.12h-.06l.06.12a.12.12,0,0,0,0,.09.12.12,0,0,1,0,.09.53.53,0,0,0,.06.24v.3a.67.67,0,0,1,.06.3,1,1,0,0,0,.06.42v.42a2,2,0,0,1,.06.48V50a1.39,1.39,0,0,0,0,.27,1.39,1.39,0,0,1,0,.27V53Z"/><path d="M210.28,61.45a4.52,4.52,0,0,0,.21,1.6,2.77,2.77,0,0,0,.45.78l.45.51a1.19,1.19,0,0,1,.21.79H195.4a.85.85,0,0,1-1-1,.89.89,0,0,1-.3.69,1,1,0,0,1-.67.27h-3.23a1.17,1.17,0,0,1,.21-.78l.45-.51a2.85,2.85,0,0,0,.45-.75,4,4,0,0,0,.21-1.5V44.91a3.25,3.25,0,0,0-1.68-2.7,3.73,3.73,0,0,1,1.68-.42V22a4,4,0,0,0-.21-1.5,2.85,2.85,0,0,0-.45-.75l-.45-.51a1.17,1.17,0,0,1-.21-.78h3.23a.94.94,0,0,1,.67.3,1,1,0,0,1,.3.72,1,1,0,0,1,.27-.72.89.89,0,0,1,.69-.3h3.12a1.17,1.17,0,0,1-.21.78l-.45.54a3.49,3.49,0,0,0-.45.78,4.2,4.2,0,0,0-.21,1.56V41.79a3.49,3.49,0,0,1,1.62.42,3.29,3.29,0,0,0-1.62,2.7V60.69a1.56,1.56,0,0,0,.48,1.14,1.54,1.54,0,0,0,1.13.48h4.29a1.52,1.52,0,0,0,1.13-.49,1.59,1.59,0,0,0,.47-1.15V58.8a5.68,5.68,0,0,1,.72-2.65,5.77,5.77,0,0,1,1.65-1.88,5.25,5.25,0,0,1,3.21-.84Zm-15.42-19.7V38.52q0-.42,0-.78t0-.78V35.4q-.06-1.5-.06-2.91t-.06-2.61q-.06-.6-.06-1.17a8.5,8.5,0,0,0-.06-1.05c0-.32,0-.62,0-.91s0-.53,0-.77a5.78,5.78,0,0,0,0-.63,4.21,4.21,0,0,1,0-.45v-.42a.17.17,0,0,0-.06.12v.3a4.21,4.21,0,0,1,0,.45,5.78,5.78,0,0,0,0,.63c0,.24,0,.5,0,.77s0,.59,0,.91a8.5,8.5,0,0,0-.06,1.05q0,.57-.06,1.17-.06,1.2-.06,2.61T194,35.4v2.34a5.54,5.54,0,0,1-.06.78V45a2.77,2.77,0,0,0,0,.39,2.77,2.77,0,0,1,0,.39v2.34q0,.78,0,1.5t0,1.38q0,.72,0,1.35t0,1.29a2.91,2.91,0,0,1,.06.57v.57a4.39,4.39,0,0,0,0,.54,4.39,4.39,0,0,1,0,.54c0,.32,0,.62,0,.89s0,.54,0,.79a5.78,5.78,0,0,0,0,.63,4.21,4.21,0,0,1,0,.45v.3a.17.17,0,0,0,.06.12v-.42a4.21,4.21,0,0,1,0-.45,5.78,5.78,0,0,0,0-.63c0-.25,0-.5,0-.79s0-.57,0-.89a2.78,2.78,0,0,0,.06-.54v-.54a5.17,5.17,0,0,1,0-.57,5.17,5.17,0,0,0,0-.57q0-.66,0-1.29t0-1.35q0-.66,0-1.38t0-1.5V46.17a1.23,1.23,0,0,1,.06-.39v-4Z"/><path d="M249.52,62.07a3.48,3.48,0,0,0,.45,1.17,4.78,4.78,0,0,0,.54.66q.27.27.48.51a1.73,1.73,0,0,1,.33.72H248.2a1.5,1.5,0,0,1-.75-.33,1.06,1.06,0,0,1-.39-.69.8.8,0,0,1-.78,1H243.1a1.48,1.48,0,0,1,.06-.72l.27-.78a8.69,8.69,0,0,0,.27-.93,4,4,0,0,0,.06-1.23l-1.56-9a2.07,2.07,0,0,0-.69-1,1.79,1.79,0,0,0-1.17-.42H236a1.71,1.71,0,0,0-1.11.42,2.51,2.51,0,0,0-.75,1l-1.5,9a5,5,0,0,0-.09,1.56,2.37,2.37,0,0,0,.27.78l.33.54a1.26,1.26,0,0,1,.09.78H230a.74.74,0,0,1-.6-.3.9.9,0,0,1-.18-.72,1.17,1.17,0,0,1-.39.72,1.08,1.08,0,0,1-.75.3H225a1.2,1.2,0,0,1,.3-.72l.51-.48a3.52,3.52,0,0,0,.54-.63,4.36,4.36,0,0,0,.51-1.23L230,44a2.26,2.26,0,0,0-1.14-1.74,3.43,3.43,0,0,1,1.5-.42l3.48-19.68a4.43,4.43,0,0,0,.06-1.59,2.44,2.44,0,0,0-.3-.78q-.18-.27-.36-.51a1,1,0,0,1-.06-.78h4.14a.87.87,0,0,1,.84,1,1,1,0,0,1,.27-.66.82.82,0,0,1,.63-.3h4.08a1.48,1.48,0,0,1-.06.72q-.12.36-.3.78a5.64,5.64,0,0,0-.3.93,3.16,3.16,0,0,0,0,1.23l3.42,19.68a3.52,3.52,0,0,1,1.56.42A2.26,2.26,0,0,0,246.34,44ZM236.14,26q.06-.36.09-.63a4.63,4.63,0,0,0,0-.51.24.24,0,0,1,0-.15.12.12,0,0,0,0-.09v-.12a.17.17,0,0,0-.06.12.12.12,0,0,1,0,.09.24.24,0,0,0,0,.15,2.23,2.23,0,0,0-.09.45A3.13,3.13,0,0,1,236,26q-.18.66-.51,2.31t-.69,3.54q-.36,1.89-.75,3.75t-.63,2.94q-.18.78-.33,1.56t-.27,1.62q-.06.36-.33,1.83t-.54,3.09q-.27,1.62-.48,3T231.22,51q-.18,1-.3,1.92t-.3,1.86a4.39,4.39,0,0,1,0,.54q0,.24-.09.54a5.29,5.29,0,0,0-.15.93q0,.45-.09.81t-.09.63a4.21,4.21,0,0,0,0,.45.67.67,0,0,0-.06.3v.12a.17.17,0,0,0,.06-.12.67.67,0,0,1,.06-.3,2.23,2.23,0,0,0,.09-.45,3.13,3.13,0,0,1,.15-.63q.06-.18.24-1.11t.42-2l.45-2.1a6.91,6.91,0,0,1,.33-1.23q.06-.3.33-1.74l.57-3.06q.3-1.62.57-3t.27-1.47q.12-.84.3-1.62t.3-1.62Zm3.54,22.2a1.28,1.28,0,0,0,1-.48,1.34,1.34,0,0,0,.27-1.14l-.24-1.26a.53.53,0,0,0-.06-.24,3.19,3.19,0,0,0-.75-1.65,5.42,5.42,0,0,0-1.47-1.23,3,3,0,0,1,1.62-.48l.12,0a.27.27,0,0,0,.12,0l-2.16-12.36L236,41.79a.12.12,0,0,0,.09,0,.12.12,0,0,1,.09,0,2.68,2.68,0,0,1,1.62.48,4,4,0,0,0-2.22,2.88.35.35,0,0,1-.06.24l-.24,1.26a1.34,1.34,0,0,0,.27,1.14,1.28,1.28,0,0,0,1.05.48Zm6.42,10.44a.42.42,0,0,0,0,.18.27.27,0,0,1,0,.12v0a.27.27,0,0,0,0-.12.42.42,0,0,1,0-.18q0-.18,0-.48t-.09-.66a5.94,5.94,0,0,1-.09-.75,5.29,5.29,0,0,0-.15-.93,4.39,4.39,0,0,0,0-.54q0-.24-.09-.54t-.09-.57q0-.27-.09-.57-.12-.66-.18-1.29T245.08,51l-.24-1.44q-.12-.72-.24-1.5a10.07,10.07,0,0,0-.18-1.23q-.18-1-.36-2.1t-.36-2q-.18-.9-.18-1-.12-.84-.27-1.62t-.33-1.56q-.12-.78-.27-1.56t-.33-1.56l-.57-2.94-.51-2.58q-.24-1-.45-2T240.34,26q-.06-.36-.12-.63a4.64,4.64,0,0,0-.12-.45.53.53,0,0,1-.06-.24.17.17,0,0,0-.06-.12v.12a.12.12,0,0,0,0,.09.24.24,0,0,1,0,.15,2.1,2.1,0,0,1,.06.51,3.9,3.9,0,0,0,.06.63q.12.9.27,1.89t.27,2q.36,2.52.9,5.58l.24,1.56.24,1.56q.12.84.27,1.62t.33,1.62q.06.42.21,1.29t.33,1.83q.18,1,.36,1.86t.24,1.32q.18.78.33,1.53t.27,1.41q.12.66.27,1.32t.27,1.26l.12.6.12.6q.06.3.12.51t.12.51q.12.48.21.9t.15.78a6.48,6.48,0,0,1,.18.63A4.64,4.64,0,0,0,246.1,58.65Z"/><path d="M281.92,52.17a1.17,1.17,0,0,1-.21.78l-.45.51a2.77,2.77,0,0,0-.45.78,4.23,4.23,0,0,0-.21,1.53,8.94,8.94,0,0,1-.75,3.63,9.47,9.47,0,0,1-5,5,8.94,8.94,0,0,1-3.63.75,9,9,0,0,1-3.6-.72,9.55,9.55,0,0,1-2.94-1.95,9.45,9.45,0,0,1-2-2.88,9.24,9.24,0,0,1-.81-3.57V44.91a3.25,3.25,0,0,0-1.68-2.7,3.73,3.73,0,0,1,1.68-.42V27.63a9.47,9.47,0,0,1,.81-3.6,9.34,9.34,0,0,1,2-2.91,9.55,9.55,0,0,1,2.94-1.95,9.32,9.32,0,0,1,7.23,0,9.44,9.44,0,0,1,5,5,9,9,0,0,1,.75,3.67,4,4,0,0,0,.21,1.5,3.4,3.4,0,0,0,.45.77l.45.54a1.17,1.17,0,0,1,.21.78H278.8a1,1,0,1,0-1.92,0H273.7a1.17,1.17,0,0,1,.21-.78l.45-.54a3.19,3.19,0,0,0,.45-.77,4.17,4.17,0,0,0,.21-1.55v-.06c0-.52,0-1.14-.06-1.88a7.89,7.89,0,0,0-.41-2.12A4.38,4.38,0,0,0,273.42,22a3,3,0,0,0-2.15-.71,2.92,2.92,0,0,0-2.17.75,4.64,4.64,0,0,0-1.1,1.77,7.67,7.67,0,0,0-.42,2.16q-.06,1.14-.06,1.92V41.79a3.49,3.49,0,0,1,1.62.42,3.29,3.29,0,0,0-1.62,2.7V55.77q0,.78.06,1.89a8,8,0,0,0,.42,2.16,4.36,4.36,0,0,0,1.1,1.77,3,3,0,0,0,2.17.72,3.05,3.05,0,0,0,2.15-.72,4.34,4.34,0,0,0,1.13-1.74,8,8,0,0,0,.41-2.13q.06-1.11.06-1.89a4.46,4.46,0,0,0-.21-1.59,2.77,2.77,0,0,0-.45-.78l-.45-.51a1.17,1.17,0,0,1-.21-.78h3.18a1,1,0,0,0,1.92,0ZM265.18,41.73V39q0-.36,0-.72t0-.66V36.21q-.06-1.32-.06-2.52T265,31.41a9,9,0,0,1-.06-1,7.5,7.5,0,0,0-.06-.93q0-.42,0-.81t0-.69a4.39,4.39,0,0,0,0-.54,3.44,3.44,0,0,1,0-.42v-.3a.05.05,0,0,0-.06.06V27a3.44,3.44,0,0,1,0,.42,4.39,4.39,0,0,0,0,.54q0,.3,0,.69t0,.81a7.5,7.5,0,0,0-.06.93,9,9,0,0,1-.06,1q-.06,1.08-.06,2.28t-.06,2.52v1.38q0,.3,0,.66t0,.72v5.58a2.19,2.19,0,0,0,0,.36,1.89,1.89,0,0,1,0,.3v2q0,.66,0,1.29t0,1.23q0,.66,0,1.23t0,1a9.26,9.26,0,0,1,.06,1,6.37,6.37,0,0,0,.06.9q0,.48,0,.84t0,.66a4.39,4.39,0,0,0,0,.54,3.44,3.44,0,0,1,0,.42v.3a.05.05,0,0,0,.06.06v-.36a3.44,3.44,0,0,1,0-.42,4.39,4.39,0,0,0,0-.54q0-.3,0-.66t0-.84a6.37,6.37,0,0,0,.06-.9,9.26,9.26,0,0,1,.06-1q0-.48,0-1t0-1.23q0-.6,0-1.23t0-1.29V45.93a3.2,3.2,0,0,1,.06-.72V41.73Z"/><path d="M313.84,61.77a6.13,6.13,0,0,0,.69,1.41,3.92,3.92,0,0,0,.66.72l.6.51a1.78,1.78,0,0,1,.45.72h-3.18a1.22,1.22,0,0,1-1.26-1q.3,1-.66,1H308a1.1,1.1,0,0,1-.06-.78l.27-.51a2.17,2.17,0,0,0,.21-.78,4.14,4.14,0,0,0-.3-1.59l-5.52-17.28-1.38,2.64V61.47a4.41,4.41,0,0,0,.22,1.59,2.76,2.76,0,0,0,.47.78l.47.51a1.12,1.12,0,0,1,.22.78h-3.16a.86.86,0,0,1-1-1,.89.89,0,0,1-.3.69,1,1,0,0,1-.66.27h-3.18a1.17,1.17,0,0,1,.21-.78l.45-.51a2.85,2.85,0,0,0,.45-.75,4,4,0,0,0,.21-1.5V44.91a3.25,3.25,0,0,0-1.68-2.7,3.73,3.73,0,0,1,1.68-.42V22a4,4,0,0,0-.21-1.5,2.85,2.85,0,0,0-.45-.75l-.45-.51a1.17,1.17,0,0,1-.21-.78h3.18a.92.92,0,0,1,.66.3,1,1,0,0,1,.3.72,1,1,0,0,1,.28-.72.89.89,0,0,1,.7-.3h3.16a1.12,1.12,0,0,1-.22.78l-.47.54a3.49,3.49,0,0,0-.47.78,4.16,4.16,0,0,0-.22,1.56l0,18.9,10.4-20.7a3.1,3.1,0,0,0,.27-.81,1.23,1.23,0,0,0,0-.39l-.06-.24a.81.81,0,0,1,.09-.42h1.68q.48,0,.24.48a.77.77,0,0,1,.72-.48h1.56a.88.88,0,0,1-.3.42l-.36.24a2.35,2.35,0,0,0-.42.39,3.19,3.19,0,0,0-.48.81l-8.58,17ZM298.84,45q.06-.84.06-1.62V40.17q0-.78-.06-1.62V35.43q-.06-1.5-.09-2.91t-.09-2.61V28.74a8.5,8.5,0,0,0-.06-1q0-.48,0-.9t0-.78a3.9,3.9,0,0,1-.06-.63v-.45a.67.67,0,0,1-.06-.3v.3a4.21,4.21,0,0,1,0,.45,5.78,5.78,0,0,0,0,.63,4.75,4.75,0,0,0-.06.78v.9a8.5,8.5,0,0,0-.06,1q0,.57-.06,1.17-.06,1.2-.09,2.61t0,2.91v.78A5.54,5.54,0,0,1,298,37v9.6a5.54,5.54,0,0,1,.06.78v2.28q0,.72.06,1.38t0,1.35q0,.63,0,1.29a5.17,5.17,0,0,0,0,.57,5.17,5.17,0,0,1,0,.57v1.08a7.28,7.28,0,0,1,.06.9,4.75,4.75,0,0,0,.06.78,5.78,5.78,0,0,0,0,.63,4.21,4.21,0,0,1,0,.45V59a1,1,0,0,1,.06-.3V58.2a3.9,3.9,0,0,1,.06-.63q0-.36,0-.78t0-.9a4.39,4.39,0,0,1,0-.54,4.39,4.39,0,0,0,0-.54v-.57a2.91,2.91,0,0,1,.06-.57V52.38q0-.63.06-1.35t0-1.38q0-.72,0-1.5V45Zm11.22,13.86a.17.17,0,0,0,.06.12.05.05,0,0,0,.06.06.05.05,0,0,1-.06-.06v-.12a5,5,0,0,0-.12-.54,5.27,5.27,0,0,0-.12-.78,1.48,1.48,0,0,1-.15-.48q0-.24-.09-.54a5.25,5.25,0,0,1-.3-1.2,3.18,3.18,0,0,1-.18-.66A3.18,3.18,0,0,0,309,54a3.72,3.72,0,0,1-.24-.72.92.92,0,0,0-.12-.36.42.42,0,0,0,0-.18.42.42,0,0,1,0-.18l-.24-.72-.24-.72q-.12-.42-.24-.78l-.24-.72-.12-.36a2.33,2.33,0,0,0-.12-.3l-.12-.36-.12-.36q-.24-.66-.48-1.29t-.42-1.17q-.24-.54-.42-1l-.3-.75a.53.53,0,0,1-.15-.24,1.17,1.17,0,0,0-.09-.24.17.17,0,0,1-.06-.12v.18a.53.53,0,0,1,.06.24.53.53,0,0,0,.06.24q.06.36.18.81t.24,1.05l.27,1.2a11,11,0,0,0,.39,1.32l.18.72a3.72,3.72,0,0,0,.24.72q.12.36.21.72t.21.72l.24.72.24.72a.46.46,0,0,1,.06.18.46.46,0,0,0,.06.18.46.46,0,0,1,.06.18.46.46,0,0,0,.06.18,3.72,3.72,0,0,1,.24.72q.12.3.24.63t.24.63l.24.6.24.6q.12.3.18.51a2.63,2.63,0,0,0,.18.45,3,3,0,0,0,.36.72A2.34,2.34,0,0,0,310.06,58.89Z"/><path d="M366.7,18.45a1.73,1.73,0,0,1-.33.72q-.21.24-.48.51a4.78,4.78,0,0,0-.54.66,4.36,4.36,0,0,0-.51,1.23l-3.54,20.1a2.68,2.68,0,0,1,1.62.48,4.28,4.28,0,0,0-1.44,1.17A3.82,3.82,0,0,0,360.7,45a.27.27,0,0,1,0,.12.27.27,0,0,0,0,.12l-.54,3.12-2.34,13a5.19,5.19,0,0,0-.09,1.59,1.77,1.77,0,0,0,.3.78,6.13,6.13,0,0,1,.36.51,1.26,1.26,0,0,1,.09.78h-4.14a.87.87,0,0,1-.84-1,1,1,0,0,1-.27.66.89.89,0,0,1-.69.3h-4a1,1,0,0,1,.06-.78l.36-.51a2.43,2.43,0,0,0,.3-.75,4,4,0,0,0-.06-1.5l-2-12.3-1.92,12.36a4,4,0,0,0-.06,1.5,2.43,2.43,0,0,0,.3.75l.33.51a1.26,1.26,0,0,1,.09.78H341.8a.9.9,0,0,1-.9-1,.86.86,0,0,1-.27.63,1.14,1.14,0,0,1-.63.33h-4.08a2.13,2.13,0,0,1,.33-1.47,3.7,3.7,0,0,0,.33-2.19l-2.94-16.14v-.24a3.82,3.82,0,0,0-.78-1.71,4.28,4.28,0,0,0-1.44-1.17,2.58,2.58,0,0,1,1.56-.48H333l-3.6-20.16a3.14,3.14,0,0,0-.48-1.23,6.8,6.8,0,0,0-.57-.66l-.51-.51a1.2,1.2,0,0,1-.3-.72h3.12a1.08,1.08,0,0,1,.75.3,1.17,1.17,0,0,1,.39.72.9.9,0,0,1,.18-.72.74.74,0,0,1,.6-.3h3.18a1.68,1.68,0,0,1-.06.78,7.32,7.32,0,0,1-.3.75,4.74,4.74,0,0,0-.3.9,3.16,3.16,0,0,0,0,1.23l3.54,19.62a3.36,3.36,0,0,1,1.68.48,2.52,2.52,0,0,0-1.2,2.34l1.74,9.72,1.68-9.78a2.46,2.46,0,0,0-1.2-2.28,3.36,3.36,0,0,1,1.68-.48l1.32-7.5q-.12-1-.3-2t-.3-1.71q-.18-.87-.3-1.53a7.72,7.72,0,0,1-.09-2.76,4.63,4.63,0,0,1,.75-1.89,3.07,3.07,0,0,1,1.35-1.08A4.49,4.49,0,0,1,347.2,23a4.57,4.57,0,0,1,1.68.33,3.54,3.54,0,0,1,1.44,1,4.23,4.23,0,0,1,.84,1.89A7.36,7.36,0,0,1,351.1,29q-.12.66-.3,1.53t-.36,1.71q-.24,1-.48,2l1.32,7.44q.42.06.84.15a2.24,2.24,0,0,1,.78.33,2.77,2.77,0,0,0-1.2,2.22l1.74,9.84,1.74-9.72a2.61,2.61,0,0,0-1.2-2.34,3.36,3.36,0,0,1,1.68-.48l3.48-19.56a5,5,0,0,0,.09-1.56,2,2,0,0,0-.3-.78l-.39-.54a1,1,0,0,1-.06-.78h3.18a.8.8,0,0,1,.66.3.76.76,0,0,1,.12.72,1.64,1.64,0,0,1,.42-.72,1,1,0,0,1,.72-.3ZM339,58.71a.42.42,0,0,0,0,.18.27.27,0,0,1,0,.12.05.05,0,0,0,.06.06A.05.05,0,0,1,339,59v-.3a2.1,2.1,0,0,1-.06-.51,3.9,3.9,0,0,0-.06-.63q-.06-.36-.12-.78t-.12-.9a10.13,10.13,0,0,1-.18-1.08q-.06-.54-.18-1.2L337.93,51l-.45-2.94a4.09,4.09,0,0,1-.15-.78,4.09,4.09,0,0,0-.15-.78q-.06-.42-.12-.78t-.12-.78q-.12-.84-.3-1.62t-.3-1.62q-.12-.84-.3-1.62t-.3-1.62a2.23,2.23,0,0,1-.09-.39,2.23,2.23,0,0,0-.09-.39,3.37,3.37,0,0,0-.12-.78,7.12,7.12,0,0,1-.18-.78q-.06-.36-.12-.78-.18-.72-.33-1.47t-.27-1.41q-.12-.66-.27-1.32T334,29.91a2.2,2.2,0,0,1-.15-.6,2.2,2.2,0,0,0-.15-.6q-.06-.3-.09-.54a1.48,1.48,0,0,0-.15-.48q-.18-.9-.36-1.68a3.13,3.13,0,0,1-.15-.63,2.23,2.23,0,0,0-.09-.45.67.67,0,0,1-.06-.3.17.17,0,0,0-.06-.12v.12a.67.67,0,0,0,.06.3,4.21,4.21,0,0,0,0,.45q0,.27.09.63t.09.81a5.29,5.29,0,0,0,.15.93q.06.3.09.54a4.39,4.39,0,0,1,0,.54q.06.3.09.57t.09.57q.12.66.21,1.29t.21,1.35q.12.66.24,1.41l.24,1.53.12.75.12.81q.12.48.18.78a2.19,2.19,0,0,0,0,.36q0,.18.09.42.12.84.27,1.62t.33,1.62q.12.84.27,1.62t.33,1.56q.06.42.12.81a6.61,6.61,0,0,0,.18.81,3.12,3.12,0,0,1,.15.75,3.12,3.12,0,0,0,.15.75l.57,2.94q.27,1.38.57,2.58l.24,1.17q.12.57.24,1.05t.21.9a7.32,7.32,0,0,0,.21.78,2.2,2.2,0,0,1,.15.6A2.29,2.29,0,0,0,339,58.71Zm6.3-14.58v.18a1.49,1.49,0,0,0-.18.42l-.18.72a8.3,8.3,0,0,0-.24,1,2.19,2.19,0,0,0-.15.57,2.19,2.19,0,0,1-.15.57l-.12.6q-.06.3-.12.66-.06.18-.18.66a.67.67,0,0,1-.06.3.84.84,0,0,1-.06.36q-.06.36-.09.69a3.06,3.06,0,0,1-.15.69q-.06.36-.09.72a3.08,3.08,0,0,1-.15.72,1.89,1.89,0,0,1,0,.3,2.19,2.19,0,0,0,0,.36,1.13,1.13,0,0,0-.06.36.67.67,0,0,1-.06.3,9.82,9.82,0,0,0-.15,1.29q0,.63-.09,1.11t-.09,1q0,.45,0,.75a2,2,0,0,0-.06.48V59l.06-.12a1.49,1.49,0,0,0,.18-.42,4.35,4.35,0,0,0,.21-.75q.09-.45.21-.93.3-1.2.54-2.4a.67.67,0,0,0,.06-.3,1.13,1.13,0,0,1,.06-.36,2.1,2.1,0,0,0,.12-.66,3.08,3.08,0,0,0,.15-.72,2.28,2.28,0,0,1,.15-.66l.18-1.44a.67.67,0,0,0,.06-.3.42.42,0,0,1,0-.18.42.42,0,0,0,0-.18,2.19,2.19,0,0,1,0-.36,1.89,1.89,0,0,0,0-.3,9.51,9.51,0,0,1,.18-1.26,3.05,3.05,0,0,0,.06-.6,3.05,3.05,0,0,1,.06-.6,2,2,0,0,0,.06-.48v-.48a3.73,3.73,0,0,0,.06-.72v-.66Zm6.24,14.58a.24.24,0,0,0,0,.15.12.12,0,0,1,0,.09v-.24a1.33,1.33,0,0,1-.06-.42,2.78,2.78,0,0,0-.06-.54,5.86,5.86,0,0,1-.09-.66q0-.36-.09-.78t-.12-.9l-.12-1q-.3-2-.72-4.68a6,6,0,0,1-.09-.63,2.23,2.23,0,0,0-.15-.63q-.06-.36-.09-.69a6,6,0,0,0-.09-.63l-.24-1.35-.24-1.35q-.3-1.44-.54-2.7a3.28,3.28,0,0,0-.12-.72.67.67,0,0,1-.06-.3.67.67,0,0,0-.06-.3q-.06-.36-.12-.69t-.12-.63q-.12-.66-.27-1.26t-.27-1.2q-.18-1-.48-2.16-.12-.48-.21-.93t-.21-.93q-.12-.42-.18-.75t-.12-.63a2.22,2.22,0,0,1-.15-.54,1.16,1.16,0,0,0-.09-.36.53.53,0,0,1-.06-.24v.24a.84.84,0,0,1,.06.36,2.78,2.78,0,0,0,.06.54q.06.66.18,1.44.06.48.12.93t.12,1q.18,1,.36,2.16.12.6.18,1.2t.18,1.26a5.86,5.86,0,0,1,.09.66,2.28,2.28,0,0,0,.15.66,1.69,1.69,0,0,0,0,.33,1.69,1.69,0,0,1,0,.33,2.77,2.77,0,0,1,.09.33,1.69,1.69,0,0,1,0,.33l.24,1.35.24,1.35.54,2.7q.12.84.24,1.32.06.3.12.66t.12.66q.3,1.26.51,2.43t.45,2.19q.12.48.21.93t.21.87q.24.84.36,1.44a2.3,2.3,0,0,1,.15.51A2.23,2.23,0,0,0,351.52,58.71Zm10-33.78a.42.42,0,0,1,0-.18.27.27,0,0,0,0-.12v0a.27.27,0,0,1,0,.12.42.42,0,0,0,0,.18,4.64,4.64,0,0,0-.12.45,6.48,6.48,0,0,1-.18.63q-.18.78-.36,1.68a1.48,1.48,0,0,0-.15.48q0,.24-.09.54a2.19,2.19,0,0,0-.15.57q0,.27-.09.57-.12.66-.27,1.29t-.33,1.35q-.12.66-.27,1.38t-.33,1.5q-.06.42-.12.78a7.12,7.12,0,0,1-.18.78,2.19,2.19,0,0,1,0,.36q0,.18-.09.42a2.23,2.23,0,0,0-.09.39,2.23,2.23,0,0,1-.09.39q-.12.84-.27,1.62T358,41.73q-.12.78-.27,1.56t-.27,1.62a4.09,4.09,0,0,0-.15.81,4.09,4.09,0,0,1-.15.81q-.06.36-.12.75l-.12.75q-.3,1.56-.51,3L356,53.61q-.12.6-.18,1.17t-.12,1a5.28,5.28,0,0,0-.15.9q0,.42-.09.78t-.09.63a4.63,4.63,0,0,0,0,.51.67.67,0,0,0-.06.3v0a.67.67,0,0,1,.06-.3,4.64,4.64,0,0,0,.12-.45,6.48,6.48,0,0,1,.18-.63q.18-.78.36-1.68.12-.48.24-1t.24-1.2q.3-1.2.6-2.58t.6-2.88q.06-.42.12-.78a7.12,7.12,0,0,1,.18-.78q.06-.42.12-.78a7.12,7.12,0,0,1,.18-.78q.12-.84.27-1.62t.33-1.62q.12-.84.27-1.62t.27-1.56q.06-.24.09-.42t.09-.42a2.19,2.19,0,0,1,0-.36q0-.18.09-.42.06-.42.12-.78t.12-.78l.24-1.47q.12-.75.24-1.41t.21-1.35q.09-.63.21-1.29.06-.3.09-.57t.09-.57a2.91,2.91,0,0,0,.06-.57,2.1,2.1,0,0,1,.06-.51,5.29,5.29,0,0,0,.15-.93q0-.45.09-.81t.09-.63A4.21,4.21,0,0,0,361.54,24.93Z"/><path d="M396.76,62.07a3.48,3.48,0,0,0,.45,1.17,4.78,4.78,0,0,0,.54.66q.27.27.48.51a1.73,1.73,0,0,1,.33.72h-3.12a1.5,1.5,0,0,1-.75-.33,1.06,1.06,0,0,1-.39-.69.8.8,0,0,1-.78,1h-3.18a1.48,1.48,0,0,1,.06-.72l.27-.78a8.69,8.69,0,0,0,.27-.93,4,4,0,0,0,.06-1.23l-1.56-9a2.07,2.07,0,0,0-.69-1,1.79,1.79,0,0,0-1.17-.42H383.2a1.71,1.71,0,0,0-1.11.42,2.51,2.51,0,0,0-.75,1l-1.5,9a5,5,0,0,0-.09,1.56,2.37,2.37,0,0,0,.27.78l.33.54a1.26,1.26,0,0,1,.09.78h-3.18a.74.74,0,0,1-.6-.3.9.9,0,0,1-.18-.72,1.17,1.17,0,0,1-.39.72,1.08,1.08,0,0,1-.75.3h-3.12a1.2,1.2,0,0,1,.3-.72l.51-.48a3.52,3.52,0,0,0,.54-.63,4.36,4.36,0,0,0,.51-1.23L377.26,44a2.26,2.26,0,0,0-1.14-1.74,3.43,3.43,0,0,1,1.5-.42l3.48-19.68a4.43,4.43,0,0,0,.06-1.59,2.44,2.44,0,0,0-.3-.78q-.18-.27-.36-.51a1,1,0,0,1-.06-.78h4.14a.87.87,0,0,1,.84,1,1,1,0,0,1,.27-.66.82.82,0,0,1,.63-.3h4.08a1.48,1.48,0,0,1-.06.72q-.12.36-.3.78a5.64,5.64,0,0,0-.3.93,3.16,3.16,0,0,0,0,1.23l3.42,19.68a3.52,3.52,0,0,1,1.56.42A2.26,2.26,0,0,0,393.58,44ZM383.38,26q.06-.36.09-.63a4.63,4.63,0,0,0,0-.51.24.24,0,0,1,0-.15.12.12,0,0,0,0-.09v-.12a.17.17,0,0,0-.06.12.12.12,0,0,1,0,.09.24.24,0,0,0,0,.15,2.23,2.23,0,0,0-.09.45,3.13,3.13,0,0,1-.15.63q-.18.66-.51,2.31T382,31.8q-.36,1.89-.75,3.75t-.63,2.94q-.18.78-.33,1.56T380,41.67q-.06.36-.33,1.83t-.54,3.09q-.27,1.62-.48,3T378.46,51q-.18,1-.3,1.92t-.3,1.86a4.39,4.39,0,0,1,0,.54q0,.24-.09.54a5.29,5.29,0,0,0-.15.93q0,.45-.09.81t-.09.63a4.21,4.21,0,0,0,0,.45.67.67,0,0,0-.06.3v.12a.17.17,0,0,0,.06-.12.67.67,0,0,1,.06-.3,2.23,2.23,0,0,0,.09-.45,3.13,3.13,0,0,1,.15-.63q.06-.18.24-1.11t.42-2l.45-2.1a6.91,6.91,0,0,1,.33-1.23q.06-.3.33-1.74l.57-3.06q.3-1.62.57-3t.27-1.47q.12-.84.3-1.62t.3-1.62Zm3.54,22.2a1.28,1.28,0,0,0,1.05-.48,1.34,1.34,0,0,0,.27-1.14L388,45.33a.53.53,0,0,0-.06-.24,3.19,3.19,0,0,0-.75-1.65,5.42,5.42,0,0,0-1.47-1.23,3,3,0,0,1,1.62-.48.27.27,0,0,1,.12,0l.12,0-2.16-12.36-2.16,12.36a.12.12,0,0,0,.09,0,.12.12,0,0,1,.09,0,2.68,2.68,0,0,1,1.62.48,4,4,0,0,0-2.22,2.88.35.35,0,0,1-.06.24l-.24,1.26a1.34,1.34,0,0,0,.27,1.14,1.28,1.28,0,0,0,1.05.48Zm6.42,10.44a.42.42,0,0,0,0,.18.27.27,0,0,1,0,.12v0a.27.27,0,0,0,0-.12.42.42,0,0,1,0-.18q0-.18,0-.48t-.09-.66a5.94,5.94,0,0,1-.09-.75,5.29,5.29,0,0,0-.15-.93,4.39,4.39,0,0,0,0-.54q0-.24-.09-.54t-.09-.57q0-.27-.09-.57-.12-.66-.18-1.29T392.32,51l-.24-1.44q-.12-.72-.24-1.5a10.07,10.07,0,0,0-.18-1.23q-.18-1-.36-2.1t-.36-2q-.18-.9-.18-1-.12-.84-.27-1.62t-.33-1.56q-.12-.78-.27-1.56t-.33-1.56L389,32.43l-.51-2.58q-.24-1-.45-2T387.58,26q-.06-.36-.12-.63a4.64,4.64,0,0,0-.12-.45.53.53,0,0,1-.06-.24.17.17,0,0,0-.06-.12v.12a.12.12,0,0,0,0,.09.24.24,0,0,1,0,.15,2.1,2.1,0,0,1,.06.51,3.9,3.9,0,0,0,.06.63q.12.9.27,1.89t.27,2q.36,2.52.9,5.58l.24,1.56.24,1.56q.12.84.27,1.62t.33,1.62q.06.42.21,1.29t.33,1.83q.18,1,.36,1.86t.24,1.32q.18.78.33,1.53t.27,1.41q.12.66.27,1.32t.27,1.26l.12.6.12.6q.06.3.12.51t.12.51q.12.48.21.9t.15.78a6.48,6.48,0,0,1,.18.63A4.64,4.64,0,0,0,393.34,58.65Z"/><path d="M429.22,18.45a1.17,1.17,0,0,1-.21.78l-.45.54a3.49,3.49,0,0,0-.45.78,4.2,4.2,0,0,0-.21,1.56v8A5,5,0,0,1,423,27.51a5.75,5.75,0,0,1-.72-2.7V22.89a1.49,1.49,0,0,0-.41-1.08,1.89,1.89,0,0,0-1-.54,1.93,1.93,0,0,0-1,.54,1.49,1.49,0,0,0-.41,1.08v18.9a3.49,3.49,0,0,1,1.62.42,3.22,3.22,0,0,0-1.62,2.7V61.47a4.46,4.46,0,0,0,.21,1.59,2.77,2.77,0,0,0,.45.78l.45.51a1.17,1.17,0,0,1,.21.78h-3.18a1,1,0,0,1-.66-.27.89.89,0,0,1-.3-.69.85.85,0,0,1-1,1h-3.16a1.17,1.17,0,0,1,.21-.78l.45-.51a2.85,2.85,0,0,0,.45-.75,4,4,0,0,0,.21-1.5V44.91a4,4,0,0,0-.57-1.56,3.56,3.56,0,0,0-1.11-1.14,3.73,3.73,0,0,1,1.68-.42v-19a1.71,1.71,0,0,0-.45-1,1.79,1.79,0,0,0-1-.54,2,2,0,0,0-1,.54,1.46,1.46,0,0,0-.42,1.08v1.92a5.75,5.75,0,0,1-.72,2.7,5,5,0,0,1-4.86,2.64v-8a4.2,4.2,0,0,0-.21-1.56,3.49,3.49,0,0,0-.45-.78l-.45-.54a1.17,1.17,0,0,1-.21-.78h11.64a.89.89,0,0,1,.69.3,1,1,0,0,1,.27.72,1,1,0,0,1,.3-.72.92.92,0,0,1,.66-.3h11.58ZM417.1,45q.06-.84.06-1.62V40.17q0-.78-.06-1.62V35.43q-.06-1.5-.06-2.91T417,29.91q-.06-.6-.06-1.17a8.5,8.5,0,0,0-.06-1q0-.48,0-.9t0-.78a3.9,3.9,0,0,1-.06-.63v-.45a.42.42,0,0,0,0-.18.27.27,0,0,1,0-.12v.3a4.21,4.21,0,0,1,0,.45,5.78,5.78,0,0,0,0,.63q0,.36,0,.78t0,.9a8.5,8.5,0,0,0-.06,1q0,.57-.06,1.17-.06,1.2-.09,2.61t0,2.91V37a5.73,5.73,0,0,0-.06.81v8a2.77,2.77,0,0,0,0,.39,2.77,2.77,0,0,1,0,.39v1.56q0,.78,0,1.5t0,1.38q0,.72,0,1.38t0,1.26a5.17,5.17,0,0,0,0,.57,5.17,5.17,0,0,1,0,.57v.54a2.78,2.78,0,0,0,.06.54q0,.48,0,.9t0,.78a5.78,5.78,0,0,0,0,.63,4.63,4.63,0,0,1,0,.51V59a.27.27,0,0,1,0-.12.42.42,0,0,0,0-.18V58.2a3.9,3.9,0,0,1,.06-.63q0-.36,0-.78t0-.9a4.39,4.39,0,0,1,0-.54,4.39,4.39,0,0,0,0-.54v-.57a2.91,2.91,0,0,1,.06-.57q0-.6,0-1.26T417,51q0-.66,0-1.38t0-1.5V45Z"/><path d="M461.5,61.45a4.52,4.52,0,0,0,.21,1.6,2.77,2.77,0,0,0,.45.78l.45.51a1.19,1.19,0,0,1,.21.79h-16.2a.85.85,0,0,1-1-1,.89.89,0,0,1-.3.69,1,1,0,0,1-.67.27h-3.23a1.17,1.17,0,0,1,.21-.78l.45-.51a2.85,2.85,0,0,0,.45-.75,4,4,0,0,0,.21-1.5V44.91a3.25,3.25,0,0,0-1.68-2.7,3.73,3.73,0,0,1,1.68-.42V22a4,4,0,0,0-.21-1.5,2.85,2.85,0,0,0-.45-.75l-.45-.51a1.17,1.17,0,0,1-.21-.78h3.23a1,1,0,0,1,.67.3,1,1,0,0,1,.3.72,1,1,0,0,1,.27-.72.89.89,0,0,1,.69-.3h16.2a1.17,1.17,0,0,1-.21.78l-.45.54a3.49,3.49,0,0,0-.45.78,4.2,4.2,0,0,0-.21,1.56v8a5,5,0,0,1-4.86-2.64,5.75,5.75,0,0,1-.72-2.7V22.89a1.59,1.59,0,0,0-.47-1.14,1.56,1.56,0,0,0-1.14-.48H450a1.52,1.52,0,0,0-1.13.48,1.56,1.56,0,0,0-.48,1.14V39a1.56,1.56,0,0,0,.48,1.14,1.75,1.75,0,0,0,1.13.54h.42a1.68,1.68,0,0,0,1.1-.54A1.65,1.65,0,0,0,452,39V39a3.26,3.26,0,0,1,.48-1.56,3.43,3.43,0,0,1,1.07-1.08,3.72,3.72,0,0,1,2.08-.48V48.27a3.92,3.92,0,0,1-2.08-.45,3.17,3.17,0,0,1-1.07-1,3.26,3.26,0,0,1-.48-1.56v-.06a1.65,1.65,0,0,0-.44-1.14,1.68,1.68,0,0,0-1.1-.54H450a1.75,1.75,0,0,0-1.13.54,1.56,1.56,0,0,0-.48,1.14V60.69a1.56,1.56,0,0,0,.48,1.14,1.52,1.52,0,0,0,1.13.48h4.28a1.53,1.53,0,0,0,1.14-.49,1.59,1.59,0,0,0,.47-1.15V58.8a5.68,5.68,0,0,1,.72-2.65,5.77,5.77,0,0,1,1.65-1.88,5.25,5.25,0,0,1,3.21-.84Zm-15.42-19.7V38.52q0-.42,0-.78t0-.78V35.4q-.06-1.5-.06-2.91t-.06-2.61q-.06-.6-.06-1.17a8.5,8.5,0,0,0-.06-1.05c0-.32,0-.62,0-.91s0-.53,0-.77a5.78,5.78,0,0,0,0-.63,4.21,4.21,0,0,1,0-.45v-.42a.17.17,0,0,0-.06.12v.3a4.21,4.21,0,0,1,0,.45,5.78,5.78,0,0,0,0,.63c0,.24,0,.5,0,.77s0,.59,0,.91a8.5,8.5,0,0,0-.06,1.05q0,.57-.06,1.17-.06,1.2-.06,2.61t-.06,2.91v2.34a5.54,5.54,0,0,1-.06.78V45a2.77,2.77,0,0,0,0,.39,2.77,2.77,0,0,1,0,.39v2.34q0,.78,0,1.5t0,1.38q0,.72,0,1.35t0,1.29a2.91,2.91,0,0,1,.06.57v.57a4.39,4.39,0,0,0,0,.54,4.39,4.39,0,0,1,0,.54c0,.32,0,.62,0,.89s0,.54,0,.79a5.78,5.78,0,0,0,0,.63,4.21,4.21,0,0,1,0,.45v.3a.17.17,0,0,0,.06.12v-.42a4.21,4.21,0,0,1,0-.45,5.78,5.78,0,0,0,0-.63c0-.25,0-.5,0-.79s0-.57,0-.89a2.78,2.78,0,0,0,.06-.54v-.54a5.17,5.17,0,0,1,0-.57,5.17,5.17,0,0,0,0-.57q0-.66,0-1.29T446,51q0-.66,0-1.38t0-1.5V46.17a1.23,1.23,0,0,1,.06-.39v-4Z"/><path d="M498.46,67.64a1.56,1.56,0,0,1,.93.43,1.82,1.82,0,0,1,.39.6,1.68,1.68,0,0,1,.06.78,12.93,12.93,0,0,1-3.59-.48,7.55,7.55,0,0,1-2.92-1.56,7.68,7.68,0,0,1-2-2.82,11.67,11.67,0,0,1-.8-4.26V50.07q0-.78-.06-1.92a7.67,7.67,0,0,0-.42-2.16,4.52,4.52,0,0,0-1.1-1.77,2.92,2.92,0,0,0-2.17-.75h-2.44a1.64,1.64,0,0,0-.92.57,1.55,1.55,0,0,0-.39,1.05V61.47a4.46,4.46,0,0,0,.21,1.59,2.77,2.77,0,0,0,.45.78l.45.51a1.17,1.17,0,0,1,.21.78h-3.12a.85.85,0,0,1-1-1,.89.89,0,0,1-.3.69,1,1,0,0,1-.67.27h-3.23a1.16,1.16,0,0,1,.21-.78l.45-.52a2.69,2.69,0,0,0,.45-.75,4,4,0,0,0,.21-1.5V44.88a3.25,3.25,0,0,0-1.68-2.7,3.73,3.73,0,0,1,1.68-.42V22a4,4,0,0,0-.21-1.5,3,3,0,0,0-.45-.74l-.45-.51a1.17,1.17,0,0,1-.21-.78h3.23a1,1,0,0,1,.67.3,1,1,0,0,1,.3.72,1,1,0,0,1,.27-.72.88.88,0,0,1,.68-.3h5.6a8.59,8.59,0,0,1,3.57.75,9.88,9.88,0,0,1,2.92,2,8.91,8.91,0,0,1,2,2.91,9.9,9.9,0,0,1,.77,3.54v6.47a9.31,9.31,0,0,1-4.38,8,8.76,8.76,0,0,1,3.2,3.33A9.4,9.4,0,0,1,496.06,50v10q0,1.32.06,2.58a15.6,15.6,0,0,0,.27,2.31,4.89,4.89,0,0,0,.69,1.77A2.08,2.08,0,0,0,498.46,67.64ZM480.7,41.79V38.55q0-.42,0-.78t0-.78V35.43q-.06-1.5-.06-2.91t-.06-2.61q-.06-.6-.06-1.17a8.5,8.5,0,0,0-.06-1q0-.48,0-.9t0-.78a5.78,5.78,0,0,0,0-.63,4.21,4.21,0,0,1,0-.45v-.42a.17.17,0,0,0-.06.12v.3a4.21,4.21,0,0,1,0,.45,5.78,5.78,0,0,0,0,.63q0,.36,0,.78t0,.9a8.5,8.5,0,0,0-.06,1q0,.57-.06,1.17-.06,1.2-.06,2.61t-.06,2.91v2.34a5.54,5.54,0,0,1-.06.78V45a2.77,2.77,0,0,0,0,.39,2.77,2.77,0,0,1,0,.39v2.34q0,.78,0,1.5t0,1.38q0,.72,0,1.35t0,1.29a2.91,2.91,0,0,1,.06.57v.57a4.39,4.39,0,0,0,0,.54,4.39,4.39,0,0,1,0,.54q0,.48,0,.9t0,.78a5.78,5.78,0,0,0,0,.63,4.21,4.21,0,0,1,0,.45V59a.17.17,0,0,0,.06.12v-.42a4.21,4.21,0,0,1,0-.45,5.78,5.78,0,0,0,0-.63q0-.36,0-.78t0-.9a2.78,2.78,0,0,0,.06-.54v-.54a5.17,5.17,0,0,1,0-.57,5.17,5.17,0,0,0,0-.57q0-.66,0-1.29t0-1.35q0-.66,0-1.38t0-1.5V46.2a1.23,1.23,0,0,1,.06-.39v-4Zm9.84-13.94q0-.78-.06-1.92a7.6,7.6,0,0,0-.42-2.15A4.52,4.52,0,0,0,489,22a3,3,0,0,0-2.17-.74h-2.14a1.82,1.82,0,0,0-1.13.51,1.43,1.43,0,0,0-.48,1.1V39a1.56,1.56,0,0,0,.48,1.14,1.75,1.75,0,0,0,1.13.54h2.14A2.92,2.92,0,0,0,489,39.9a4.52,4.52,0,0,0,1.1-1.77,7.53,7.53,0,0,0,.42-2.15c0-.76.06-1.4.06-1.91Zm4,37.58v-.06l-.12-.12s0-.06,0-.06,0,0,0-.06l-.06-.12a.12.12,0,0,0,0-.09.12.12,0,0,1,0-.09s-.06-.06-.06-.18a5.44,5.44,0,0,1-.24-1q-.06-.3-.09-.6t0-.66a4.37,4.37,0,0,1-.06-.72V57.33q0-.48,0-.93t0-.93v-1a7.73,7.73,0,0,0-.06-1v-1a5,5,0,0,0-.06-.9q-.06-.9-.12-1.74t-.18-1.56a5,5,0,0,1-.18-.69,3.26,3.26,0,0,0-.18-.63q-.12-.3-.18-.51a2.63,2.63,0,0,0-.18-.45,2.94,2.94,0,0,1-.18-.3l-.12-.24-.12-.12v0a.17.17,0,0,0,.06.12,4.66,4.66,0,0,0,.24.6,4,4,0,0,1,.09.48q0,.24.09.54t.09.6q0,.3,0,.66.06.72.09,1.53t0,1.71a5,5,0,0,1-.06.9v5.7a3.19,3.19,0,0,0,0,.45,3.19,3.19,0,0,1,0,.45q0,.48,0,.9t.09.84q.06.42.09.81t.09.75a3.06,3.06,0,0,1,.15.69,2.23,2.23,0,0,0,.15.63l.21.51q.09.21.21.45l.21.3a2.25,2.25,0,0,0,.21.24s0,.06.12.06ZM493,30.51v1.92a2.11,2.11,0,0,0-.06.6v1.14a4.39,4.39,0,0,1,0,.54,3.87,3.87,0,0,0,0,.48,3,3,0,0,1,0,.48,2.58,2.58,0,0,0,0,.42.84.84,0,0,1-.06.36v.3a.17.17,0,0,0-.06.12V37a.12.12,0,0,1,0,.09.12.12,0,0,0,0,.09.17.17,0,0,1-.06.12h.06l.06-.12.06-.12a.17.17,0,0,0,.06-.12.17.17,0,0,0,.06-.12.24.24,0,0,0,.06-.18s.06,0,.06-.12a.92.92,0,0,0,.12-.36,1,1,0,0,0,.12-.42,1,1,0,0,0,.12-.42,1.9,1.9,0,0,0,.12-.54.6.6,0,0,0,.06-.27.6.6,0,0,1,.06-.27,1.39,1.39,0,0,1,0-.27,1.39,1.39,0,0,0,0-.27,2.11,2.11,0,0,0,.06-.6,3.21,3.21,0,0,0,.06-.63,3.21,3.21,0,0,1,.06-.63V29.25q0-.6-.06-1.26a.67.67,0,0,1-.06-.3.67.67,0,0,0-.06-.3,1.82,1.82,0,0,0-.06-.54q-.06-.3-.09-.54t-.09-.54a1,1,0,0,1-.12-.42,2.51,2.51,0,0,1-.12-.42l-.18-.36a1.05,1.05,0,0,0-.12-.3l-.18-.36a.17.17,0,0,1-.06-.12l-.06-.06v.06s0,.06,0,.06,0,0,0,.06a.48.48,0,0,1,.06.21.48.48,0,0,0,.06.21v.3a.84.84,0,0,1,.06.36.66.66,0,0,0,0,.21.66.66,0,0,1,0,.21v.48a2,2,0,0,1,.06.48v1.08a1.39,1.39,0,0,0,0,.27,1.69,1.69,0,0,1,0,.33v2.46Z"/><line class="cls-1" x1="377.87" y1="179.5" x2="652.87" y2="178.5"/><line class="cls-1" x1="13.87" y1="180.5" x2="288.87" y2="179.5"/><path id="whole_head" data-name="whole head" class="cls-2" d="M301.73,97.62l-2-2s-4-2-5-2h-3c-1,0-2-1-4-1a38.69,38.69,0,0,0-9,1c-5,1-5,1-23,2s-27,4-37,5-5,2-13,2-11,1-24,0-15-1-15-1-34-14-41-16l-4-4a88.13,88.13,0,0,1-21-18s-5-6-8-8a73.54,73.54,0,0,1-8-12,27.08,27.08,0,0,0-7-8s-5-7-8-9a105.66,105.66,0,0,0-12-10s-7-2-6,2a3.1,3.1,0,0,0,1,2,73.46,73.46,0,0,1,14,21s3,3,13,22c0,0,20,27,22,28l16,16s11,4,12,7c0,0,32,17,40,16,0,0,28,4,43-1,0,0,44-7,41-5,0,0,13-2,22,6,0,0,5,3,8-1,0,0,21,7,9,27,0,0-10,10-4,20,0,0-5,15,8,23,0,0,3,3,3,18,0,0-5,8,2,14,0,0-1,2,4,8,0,0,2,7,4,9,0,0,2,3,2,5s3,20,3,32c0,0-2,3-1,5l4,6s4,2,6,0c0,0,3,3,5,3a4.38,4.38,0,0,0,3-1,12.13,12.13,0,0,0,1-5s-2-3-1-9v-7s2,4,2,6c0,0-1,3,0,4,0,0,2,3,1,8,0,0,2,3,3,2,0,0,3-3,4-2,0,0,6-2,8-6,0,0,1-7,0-10,0,0,1-28,2-29,0,0,1-3,3-4a32.17,32.17,0,0,0,4-7s5-5,5-7c0,0,4-2,4-4,0,0,2-8-1-11,0,0-2-17,1-19,0,0,7-2,8-5,0,0,5-9,2-14,0,0,7-10,1-16,0,0-18-17,7-34,0,0,3,3,16-3,0,0,19-5,61,3,0,0,33,5,61-14,0,0,35-19,43-32,0,0,17-22,22-25,0,0,13-22,14-25,0,0,7-12,13-15,0,0,6-5-5-3,0,0-13,10-16,13,0,0-31,32-36,37,0,0-6,5-9,10,0,0-26,16-30,17l-21,7s-34,1-52-3c0,0-33-5-45-5,0,0-27-5-34,5l-2,1s-4-2-14-2c0,0-5-1-15,2,0,0-6,1-17-3,0,0-4-3-11,1C308.73,95.62,303.73,99.62,301.73,97.62Z"/><path id="hornright" class="cls-3" d="M390.23,130.12s4,0,11.5-3.5c0,0,19-5,61,3,0,0,33,5,61-14,0,0,35-19,43-32,0,0,17-22,22-25,0,0,13-22,14-25,0,0,7-12,13-15,0,0,6-5-5-3,0,0-13,10-16,13,0,0-31,32-36,37,0,0-6,5-9,10,0,0-26,16-30,17l-21,7s-34,1-52-3c0,0-33-5-45-5,1.51,1.16-11.93-3.76-24.5.5C393,85.66,400.6,131.18,390.23,130.12Z"/><path id="nostril_shadow" data-name="nostril shadow" class="cls-4" d="M330.23,261.12s-.2,12.08-.6,14,4.87.42,4.87.42-2.27-13.46-1.27-14.46S330.23,261.12,330.23,261.12Z"/><path id="right_nostril" data-name="right nostril" class="cls-5" d="M322.23,279.12s2,9,3,9c0,0,3,1,3-4,0,0,3-16,2-22"/><path id="left_nostril" data-name="left nostril" class="cls-5" d="M333.23,262.12c-1,6,3.2,22,3.2,22,0,5,3,4,3,4,1,0,3-9,3-9"/><path id="Hornleft" class="cls-3" d="M278.73,93.62c-4.87,1.53-5,1-23,2s-27,4-37,5-5,2-13,2-11,1-24,0-15-1-15-1-34-14-41-16l-4-4a88.13,88.13,0,0,1-21-18s-5-6-8-8a73.54,73.54,0,0,1-8-12,27.08,27.08,0,0,0-7-8s-5-7-8-9a105.66,105.66,0,0,0-12-10s-7-2-6,2a3.1,3.1,0,0,0,1,2,73.46,73.46,0,0,1,14,21s3,3,13,22c0,0,20,27,22,28l16,16s6.5,5.5,12,7c0,0,32,17,40,16,0,0,28,4,43-1,0,0,41.5-4.5,41-5,0,0,13-2,22,6C272.12,131.17,280.18,93.16,278.73,93.62Z"/><path id="left_hornshadow" data-name="left hornshadow" class="cls-6" d="M275.14,94.27s-10.41,2.35-7.41,30.35L269.5,127s7.84,6.54,10.79,4.84c0,0-13.66-18.12,7.44-39.21C287.73,92.62,278.06,92.43,275.14,94.27Z"/><path id="right_hornshadow" data-name="right hornshadow" class="cls-7" d="M389.77,130c6.55-43.11-15.28-37.39-15.28-37.39s8.78-4,13.76-2.27c0,0,11.46,3.62,8.72,37.69,0,0,1,1.86-4.89,2Z"/><path id="left_eye" data-name="left eye" class="cls-8" d="M288.82,176.62s-5.48,15.52,8.75,25.51c0,0,10,1.6,12.16.49,0,0-3.64-3.27-4.06-6.32C305.67,196.3,303.05,184.38,288.82,176.62Z"/><path id="left_eye-2" data-name="left eye" class="cls-9" d="M379.25,177.06s4.8,15.75-9.85,25.1c0,0-10,1.17-12.16,0,0,0,3.77-3.1,4.33-6.13C361.57,196,364.7,184.2,379.25,177.06Z"/><path id="right_eyebrow" data-name="right eyebrow" class="cls-5" d="M377.73,179.62s-13,6-14,12c0,0-6.71,16.28-15.43,17a3,3,0,0,0-1,.23c-.93.38-3.26.9-5.59-2.21"/><path id="left_eyebrow" data-name="left eyebrow" class="cls-5" d="M324.73,205.62c-2.37,3.15-4.73,2.58-5.63,2.19a2.81,2.81,0,0,0-.91-.21c-8.74-.66-15.46-17-15.46-17-1-6-13.5-13.5-13.5-13.5"/><path id="nose_bridge_shadow" data-name="nose bridge shadow" class="cls-10" d="M325.23,235.12l-1-3s-5.5,10.5-5.5,16.5c0,0-1,14,2,25l2,7s-1-9,2-14l4-2,2-3h2a10.82,10.82,0,0,0,6,4,14.09,14.09,0,0,1,3,5s2,8,0,10v3s3,0,5-25c0,0,0-20.5-5-24.75l-1.5-.75"/><path id="nose_bridge" data-name="nose bridge" class="cls-2" d="M322.23,208.12l2.5,51.5s0,1,3,4c0,0,0-10,2-7,0,0,1,3,2,3s2-6,3-3l1,6s1,0,2-3l5.5-51.5"/><path id="left_cheekbone" data-name="left cheekbone" class="cls-11" d="M322.23,222.26c-8.5,2.65-21.5-14.64-21.5-14.64a47.68,47.68,0,0,1-4-8c-2-5,4-3,4-3s3-2,4-1c-.88-.59,9,13.37,13,12"/><path id="center_ridge" data-name="center ridge" class="cls-12" d="M334.23,111.12s0,72-1,94l-1,54"/><path id="right_cheekbone" data-name="right cheekbone" class="cls-11" d="M341.68,222.62c3.95,5,5.05,0,5.05,0,14-6,13-11,13-11s7-5.47,7.5-9.24a2.28,2.28,0,0,0-2.5-2.76s-.47-1.52-3-3c0,0-7,10-10,11-.73.65-2.81.78-4,1-2.16.39-3,1-5-1Z"/><path id="left_temple" data-name="left temple" class="cls-13" d="M283.23,130.12S298,145.82,294.62,153C294.62,153,302.23,135.12,283.23,130.12Z"/><path id="right_temple" data-name="right temple" class="cls-14" d="M386.23,130.12s-12.69,14.6-12.84,24.8C373.39,154.92,368.23,140.12,386.23,130.12Z"/></svg>
