<svg xmlns="http://www.w3.org/2000/svg" width="35.206" height="43.383" viewBox="0 0 35.206 43.383">
  <g id="Symbol_4_1" data-name="Symbol 4 – 1" transform="translate(-56.831 -200.57)">
    <path id="Path_31" data-name="Path 31" d="M2.118,4.582c-.01.03,1.462-1.442,4.773.639s10.47,2.895,10.753,2.869,1.509,1.568,1.509,1.568h0a12.37,12.37,0,0,0,1.179.442,1.016,1.016,0,0,1,1.336.346c1.156-.319,1.436.452,1.436.452,1.13-.338,1.374.425,1.374.425,1.067-.46,1.409.355,1.409.355a.973.973,0,0,1,1.373.356c1.079-.414,1.323.361,1.323.361a1.122,1.122,0,0,1,1.486.371,1,1,0,0,1,1.357.324,1.243,1.243,0,0,1,1.446.253.952.952,0,0,1,1.362.177c.6-.7,1.561,0,1.561,0a.907.907,0,0,1,1.332,0c.881-.858,1.549-.177,1.549-.177.741-.86,1.419-.423,1.419-.423l1.416-.526L1.06,0C-1.838,1.5,2.127,4.552,2.118,4.582Z" transform="translate(59.2 236.984) rotate(-60)" fill="#66211f" stroke="#707070" stroke-width="0.25"/>
    <ellipse id="Ellipse_1" data-name="Ellipse 1" cx="0.688" cy="0.688" rx="0.688" ry="0.688" transform="translate(61.191 236.637) rotate(-60)" fill="#a7a7a7"/>
    <path id="Path_32" data-name="Path 32" d="M2.118,8.938c-.01-.03,1.462,1.442,4.773-.639S17.361,5.4,17.644,5.43s1.509-1.568,1.509-1.568h0a12.37,12.37,0,0,1,1.179-.442,1.016,1.016,0,0,0,1.336-.346c1.156.319,1.436-.452,1.436-.452,1.13.338,1.374-.425,1.374-.425,1.067.46,1.409-.355,1.409-.355a.973.973,0,0,0,1.373-.356c1.079.414,1.323-.361,1.323-.361A1.122,1.122,0,0,0,30.072.755,1,1,0,0,0,31.429.43,1.243,1.243,0,0,0,32.876.177.952.952,0,0,0,34.238,0c.6.7,1.561,0,1.561,0a.907.907,0,0,0,1.332,0c.881.858,1.549.177,1.549.177C39.421,1.037,40.1.6,40.1.6l1.416.526L1.06,13.521C-1.838,12.022,2.127,8.968,2.118,8.938Z" transform="translate(77.958 243.688) rotate(-120)" fill="#66211f" stroke="#707070" stroke-width="0.25"/>
    <circle id="Ellipse_2" data-name="Ellipse 2" cx="0.688" cy="0.688" r="0.688" transform="translate(86.485 237.27) rotate(-120)" fill="#a7a7a7"/>
  </g>
</svg>
